<svg width="150" height="150" viewBox="0 0 150 150" fill="none" xmlns="http://www.w3.org/2000/svg">
<g clip-path="url(#clip0_1_4)">
<rect width="150" height="150" fill="white"/>
<path d="M35.5 9.5C39.5 4.7 59.1667 2.16667 68.5 1.5C74.6667 4.16667 90.3 9.5 103.5 9.5C120 9.5 121 19 133 29.5C145 40 149 63 149 78.5C149 94 145 105 141.5 112.5C138 120 126 133.5 121 139C116 144.5 93.5 149.5 73 150.5C52.5 151.5 39 136.5 32 133.5C25 130.5 19 117 12.5 112.5C5.99999 108 2.50001 97 2.00001 78.5C1.50001 60 6.50001 60 7.50001 56C8.50001 52 16 34.5 19 29.5C22 24.5 30.5 15.5 35.5 9.5Z" stroke="black"/>
</g>
<defs>
<clipPath id="clip0_1_4">
<rect width="150" height="150" fill="white"/>
</clipPath>
</defs>
</svg>
