<svg width="796" height="796" viewBox="0 0 796 796" fill="none" xmlns="http://www.w3.org/2000/svg">
<path d="M415.006 795.909H404.558L395.694 774.295H395.285L386.421 795.909H375.972V761H384.188V782.443H384.478L392.864 761.222H398.114L406.501 782.563H406.79V761H415.006V795.909Z" fill="#050000"/>
<path d="M367.938 749.095C368.933 749.193 369.864 749.364 370.73 749.609C371.598 749.843 372.336 750.116 372.945 750.427L370.52 756.269C369.732 755.917 369.013 755.686 368.361 755.576C367.698 755.465 367.117 755.517 366.616 755.73C366.105 755.931 365.688 756.341 365.364 756.96L364.965 757.708L371.567 785.626L362.882 784.771L359.913 765.706L359.641 765.679L352.942 783.792L344.206 782.931L356.839 755.349C357.454 753.971 358.251 752.782 359.229 751.782C360.196 750.77 361.395 750.02 362.824 749.533C364.243 749.045 365.947 748.899 367.938 749.095Z" fill="#050000"/>
<path d="M304.804 748.195L304.392 784.55L295.469 781.843L297.069 758.424L296.792 758.34L284.394 778.483L277.119 776.276L278.016 752.591L277.739 752.507L266.027 772.912L257.121 770.21L276.96 739.748L284.741 742.109L284.614 764.193L284.875 764.272L297.039 745.839L304.804 748.195Z" fill="#050000"/>
<path d="M259.589 732.142C262.13 733.194 264.098 734.619 265.495 736.415C266.876 738.217 267.673 740.257 267.886 742.534C268.084 744.818 267.67 747.199 266.643 749.676C265.613 752.164 264.222 754.141 262.472 755.605C260.707 757.075 258.7 757.954 256.454 758.241C254.192 758.534 251.791 758.155 249.25 757.103C246.71 756.05 244.749 754.623 243.367 752.821C241.971 751.025 241.174 748.985 240.976 746.701C240.763 744.424 241.172 742.041 242.203 739.553C243.229 737.075 244.625 735.101 246.39 733.63C248.14 732.166 250.146 731.287 252.408 730.994C254.655 730.707 257.049 731.09 259.589 732.142ZM257.135 737.933C256.211 737.551 255.312 737.51 254.436 737.812C253.561 738.114 252.747 738.699 251.993 739.567C251.229 740.432 250.573 741.525 250.025 742.848C249.469 744.192 249.155 745.44 249.084 746.591C249.003 747.738 249.165 748.728 249.57 749.56C249.976 750.392 250.64 750.999 251.564 751.382C252.52 751.778 253.446 751.829 254.342 751.536C255.228 751.239 256.052 750.658 256.816 749.794C257.57 748.925 258.225 747.819 258.781 746.475C259.329 745.152 259.644 743.917 259.726 742.77C259.797 741.619 259.624 740.625 259.208 739.788C258.781 738.947 258.09 738.329 257.135 737.933Z" fill="#050000"/>
<path d="M233.854 720.921L221.511 744.011L214.371 740.194L216.621 735.985L216.38 735.857C215.145 737.155 213.853 737.92 212.505 738.153C211.151 738.396 209.843 738.18 208.58 737.505C208.239 737.323 207.902 737.11 207.568 736.867C207.228 736.634 206.928 736.39 206.665 736.133L210.08 729.745C210.367 730.052 210.777 730.394 211.31 730.769C211.834 731.14 212.316 731.442 212.757 731.678C213.629 732.144 214.52 732.369 215.431 732.353C216.326 732.342 217.159 732.098 217.929 731.621C218.684 731.148 219.308 730.451 219.801 729.529L226.503 716.992L233.854 720.921Z" fill="#050000"/>
<path d="M194.66 705.971L189.111 714.215L188.147 713.571L176.816 717.275L168.964 712.028L185.525 706.94L187.353 708.162L194.66 705.971ZM204.726 704.435L185.332 733.461L178.401 728.831L197.796 699.805L204.726 704.435ZM191.206 695.401L190.861 708.25L183.012 710.119L183.198 690.051L191.206 695.401Z" fill="#050000"/>
<path d="M129.558 691.111L122.17 683.723L131.185 662.172L130.896 661.883L109.345 670.898L101.957 663.51L126.641 638.825L132.451 644.635L117.288 659.797L117.493 660.002L138.429 650.926L142.141 654.639L132.981 675.659L133.186 675.864L148.433 660.617L154.243 666.427L129.558 691.111Z" fill="#050000"/>
<path d="M128.481 625.004C129.116 625.777 129.653 626.557 130.092 627.343C130.54 628.122 130.869 628.836 131.08 629.487L125.234 631.902C124.926 631.097 124.58 630.425 124.197 629.887C123.807 629.34 123.36 628.965 122.855 628.761C122.352 628.542 121.767 628.537 121.1 628.746L120.289 628.993L105.216 653.403L99.6797 646.656L111.061 631.076L110.888 630.865L93.3429 638.935L87.774 632.149L116.211 621.579C117.62 621.04 119.024 620.762 120.423 620.746C121.823 620.715 123.2 621.032 124.556 621.699C125.904 622.356 127.212 623.458 128.481 625.004Z" fill="#050000"/>
<path d="M84.4753 579.725L58.4772 605.141L54.082 596.918L71.773 581.49L71.6364 581.234L48.6261 586.711L45.0424 580.006L62.425 563.892L62.2884 563.637L39.5785 569.784L35.1913 561.576L70.7593 554.064L74.592 561.235L58.8863 576.762L59.0149 577.002L80.6506 572.57L84.4753 579.725Z" fill="#050000"/>
<path d="M63.8547 536.403C64.9071 538.944 65.2919 541.343 65.0092 543.6C64.7117 545.851 63.8329 547.857 62.3729 549.618C60.8981 551.373 58.9219 552.763 56.4442 553.79C53.956 554.82 51.5753 555.234 49.3021 555.032C47.0141 554.824 44.9743 554.027 43.1826 552.641C41.376 551.249 39.9466 549.283 38.8942 546.742C37.8418 544.201 37.4644 541.805 37.7619 539.554C38.0446 537.297 38.9234 535.291 40.3982 533.536C41.8582 531.775 43.8323 530.379 46.3205 529.349C48.7981 528.322 51.181 527.914 53.469 528.122C55.7422 528.324 57.7821 529.121 59.5886 530.513C61.3803 531.899 62.8023 533.862 63.8547 536.403ZM58.0241 538.763C57.6414 537.839 57.034 537.174 56.2018 536.768C55.3696 536.363 54.38 536.201 53.233 536.282C52.0816 536.353 50.8445 536.663 49.5217 537.211C48.1779 537.767 47.0738 538.428 46.2094 539.192C45.3407 539.945 44.7555 540.759 44.4538 541.635C44.1522 542.51 44.1927 543.409 44.5754 544.333C44.9711 545.289 45.5894 545.98 46.4303 546.406C47.2669 546.822 48.2608 546.995 49.4122 546.924C50.5592 546.842 51.8046 546.523 53.1485 545.967C54.4713 545.419 55.5671 544.768 56.4358 544.015C57.3001 543.251 57.881 542.426 58.1783 541.54C58.4712 540.644 58.4199 539.718 58.0241 538.763Z" fill="#050000"/>
<path d="M53.5915 510.27L28.537 517.871L26.1867 510.123L30.7539 508.737L30.6748 508.476C28.8833 508.521 27.4286 508.149 26.3105 507.36C25.1815 506.574 24.4093 505.496 23.9936 504.126C23.8815 503.756 23.7932 503.367 23.7288 502.959C23.6536 502.555 23.6137 502.169 23.6093 501.802L30.5417 499.699C30.5267 500.12 30.5751 500.651 30.687 501.294C30.7956 501.926 30.9225 502.481 31.0676 502.96C31.3546 503.906 31.8256 504.695 32.4806 505.328C33.1215 505.953 33.883 506.369 34.7653 506.576C35.6334 506.776 36.5677 506.724 37.5681 506.421L51.1719 502.294L53.5915 510.27Z" fill="#050000"/>
<path d="M36.4486 471.985L26.6953 473.89L26.4692 472.753L15.8378 467.36L13.9955 458.099L29.3041 466.211L29.7331 468.368L36.4486 471.985ZM44.6524 478.017L10.4141 484.828L8.78793 476.653L43.0263 469.842L44.6524 478.017ZM41.4799 462.069L32.1507 470.911L25.2788 466.682L39.6011 452.623L41.4799 462.069Z" fill="#050000"/>
<path d="M0.0909119 415.006V404.558L21.7045 395.694V395.285L0.0909119 386.421V375.972H35V384.188H13.5568V384.478L34.7784 392.864V398.114L13.4375 406.501V406.79H35V415.006H0.0909119Z" fill="#050000"/>
<path d="M46.9054 367.938C46.8074 368.933 46.6358 369.864 46.3906 370.73C46.1567 371.598 45.8842 372.336 45.573 372.945L39.7314 370.52C40.083 369.732 40.3138 369.012 40.4236 368.361C40.5346 367.698 40.4834 367.117 40.2701 366.616C40.0691 366.105 39.6592 365.688 39.0402 365.364L38.2916 364.965L10.3737 371.567L11.2291 362.882L30.2938 359.913L30.3206 359.641L12.2082 352.942L13.0686 344.206L40.6506 356.839C42.0288 357.454 43.2178 358.251 44.2177 359.229C45.23 360.196 45.9798 361.395 46.467 362.824C46.9553 364.243 47.1015 365.947 46.9054 367.938Z" fill="#050000"/>
<path d="M47.8054 304.804L11.4505 304.392L14.157 295.469L37.576 297.069L37.6601 296.792L17.5168 284.394L19.7236 277.119L43.4092 278.016L43.4933 277.739L23.0882 266.027L25.7899 257.121L56.2517 276.96L53.8915 284.741L31.8068 284.614L31.7276 284.875L50.1607 297.039L47.8054 304.804Z" fill="#050000"/>
<path d="M63.858 259.589C62.8056 262.13 61.3814 264.098 59.5854 265.495C57.7832 266.876 55.7433 267.673 53.4658 267.886C51.1821 268.084 48.8014 267.67 46.3238 266.643C43.8356 265.613 41.8593 264.222 40.395 262.472C38.9245 260.707 38.0458 258.7 37.7587 256.454C37.4655 254.192 37.8451 251.791 38.8975 249.25C39.9499 246.71 41.3772 244.749 43.1794 243.367C44.9754 241.971 47.0152 241.174 49.2989 240.976C51.5765 240.763 53.9593 241.172 56.4475 242.203C58.9252 243.229 60.8992 244.625 62.3697 246.39C63.8341 248.14 64.7128 250.146 65.006 252.408C65.2931 254.655 64.9104 257.049 63.858 259.589ZM58.0666 257.135C58.4493 256.211 58.4898 255.312 58.1881 254.436C57.8865 253.561 57.3013 252.747 56.4326 251.993C55.5682 251.229 54.4746 250.573 53.1518 250.026C51.808 249.469 50.5604 249.155 49.409 249.084C48.262 249.003 47.2724 249.165 46.4402 249.57C45.608 249.976 45.0005 250.64 44.6178 251.564C44.2221 252.52 44.1707 253.446 44.4637 254.342C44.761 255.228 45.3418 256.052 46.2062 256.816C47.0749 257.57 48.1812 258.225 49.525 258.781C50.8478 259.329 52.0827 259.644 53.2298 259.726C54.3811 259.797 55.3751 259.624 56.2117 259.208C57.0525 258.781 57.6709 258.09 58.0666 257.135Z" fill="#050000"/>
<path d="M75.0793 233.854L51.989 221.511L55.8057 214.371L60.0148 216.621L60.1434 216.38C58.8451 215.145 58.0795 213.853 57.8468 212.505C57.6041 211.151 57.8202 209.843 58.4951 208.58C58.6773 208.239 58.8898 207.902 59.1328 207.568C59.3657 207.228 59.6103 206.928 59.8665 206.665L66.2555 210.08C65.9477 210.367 65.6061 210.777 65.2306 211.31C64.8605 211.834 64.5576 212.316 64.3219 212.757C63.8558 213.629 63.6307 214.52 63.6466 215.431C63.6578 216.326 63.902 217.159 64.3793 217.929C64.8518 218.684 65.5491 219.308 66.4711 219.801L79.0085 226.503L75.0793 233.854Z" fill="#050000"/>
<path d="M90.0292 194.66L81.7854 189.111L82.4293 188.147L78.7253 176.816L83.9717 168.964L89.0601 185.525L87.8385 187.353L90.0292 194.66ZM91.5645 204.726L62.5387 185.332L67.1695 178.401L96.1954 197.796L91.5645 204.726ZM100.599 191.206L87.7497 190.861L85.8811 183.012L105.949 183.198L100.599 191.206Z" fill="#050000"/>
<path d="M104.889 129.558L112.277 122.17L133.828 131.185L134.117 130.896L125.102 109.345L132.49 101.957L157.175 126.641L151.365 132.451L136.203 117.288L135.998 117.493L145.074 138.429L141.361 142.141L120.341 132.981L120.136 133.186L135.383 148.433L129.573 154.243L104.889 129.558Z" fill="#050000"/>
<path d="M170.996 128.481C170.223 129.116 169.443 129.652 168.657 130.092C167.878 130.54 167.164 130.869 166.513 131.08L164.097 125.234C164.903 124.926 165.575 124.58 166.113 124.197C166.66 123.807 167.035 123.36 167.239 122.855C167.458 122.352 167.463 121.767 167.254 121.1L167.007 120.289L142.597 105.216L149.344 99.6796L164.924 111.061L165.135 110.888L157.065 93.3429L163.851 87.774L174.421 116.211C174.96 117.62 175.238 119.024 175.254 120.423C175.285 121.823 174.968 123.2 174.301 124.556C173.644 125.904 172.542 127.212 170.996 128.481Z" fill="#050000"/>
<path d="M216.275 84.4753L190.859 58.4772L199.082 54.0819L214.51 71.773L214.766 71.6364L209.289 48.6261L215.994 45.0424L232.108 62.425L232.363 62.2884L226.216 39.5785L234.424 35.1913L241.936 70.7593L234.765 74.592L219.238 58.8863L218.998 59.0149L223.43 80.6506L216.275 84.4753Z" fill="#050000"/>
<path d="M259.597 63.8547C257.056 64.9071 254.657 65.2919 252.4 65.0092C250.149 64.7117 248.143 63.8329 246.382 62.373C244.627 60.8981 243.237 58.9219 242.21 56.4442C241.18 53.956 240.766 51.5754 240.968 49.3022C241.176 47.0141 241.974 44.9743 243.359 43.1826C244.751 41.3761 246.717 39.9466 249.258 38.8942C251.799 37.8418 254.195 37.4644 256.446 37.762C258.703 38.0447 260.709 38.9234 262.464 40.3983C264.225 41.8582 265.621 43.8323 266.651 46.3205C267.678 48.7982 268.087 51.181 267.878 53.4691C267.676 55.7422 266.879 57.7821 265.487 59.5886C264.101 61.3803 262.138 62.8023 259.597 63.8547ZM257.237 58.0242C258.161 57.6415 258.826 57.034 259.232 56.2018C259.637 55.3696 259.799 54.38 259.718 53.233C259.647 52.0816 259.337 50.8445 258.789 49.5217C258.233 48.1779 257.572 47.0738 256.808 46.2094C256.055 45.3407 255.241 44.7555 254.365 44.4539C253.49 44.1522 252.591 44.1927 251.667 44.5754C250.711 44.9711 250.02 45.5895 249.594 46.4303C249.178 47.2669 249.005 48.2609 249.076 49.4122C249.158 50.5593 249.477 51.8047 250.033 53.1485C250.581 54.4713 251.232 55.5671 251.985 56.4358C252.749 57.3002 253.574 57.881 254.46 58.1783C255.356 58.4713 256.282 58.4199 257.237 58.0242Z" fill="#050000"/>
<path d="M285.73 53.5914L278.129 28.537L285.877 26.1867L287.263 30.7539L287.524 30.6747C287.479 28.8833 287.851 27.4285 288.64 26.3105C289.426 25.1815 290.504 24.4092 291.874 23.9936C292.244 23.8814 292.633 23.7932 293.041 23.7288C293.445 23.6535 293.831 23.6137 294.198 23.6093L296.301 30.5417C295.88 30.5267 295.349 30.5751 294.706 30.687C294.074 30.7956 293.519 30.9225 293.04 31.0676C292.094 31.3546 291.305 31.8256 290.672 32.4806C290.047 33.1214 289.631 33.883 289.424 34.7653C289.224 35.6334 289.276 36.5676 289.579 37.5681L293.706 51.1719L285.73 53.5914Z" fill="#050000"/>
<path d="M324.015 36.4486L322.11 26.6953L323.247 26.4692L328.64 15.8378L337.901 13.9955L329.789 29.3041L327.632 29.7331L324.015 36.4486ZM317.983 44.6524L311.172 10.4141L319.347 8.78793L326.158 43.0263L317.983 44.6524ZM333.931 41.4799L325.089 32.1507L329.318 25.2788L343.377 39.6011L333.931 41.4799Z" fill="#050000"/>
<path d="M380.494 0.0909119H390.942L399.806 21.7045H400.215L409.079 0.0909119H419.528V35H411.312V13.5568H411.022L402.636 34.7784H397.386L388.999 13.4375H388.71V35H380.494V0.0909119Z" fill="#050000"/>
<path d="M428.062 46.9054C427.067 46.8074 426.136 46.6358 425.27 46.3906C424.402 46.1567 423.664 45.8842 423.055 45.573L425.48 39.7314C426.268 40.083 426.988 40.3138 427.639 40.4236C428.302 40.5346 428.883 40.4834 429.384 40.2701C429.895 40.0691 430.312 39.6592 430.636 39.0402L431.035 38.2916L424.433 10.3737L433.118 11.2291L436.087 30.2938L436.359 30.3206L443.058 12.2082L451.794 13.0686L439.161 40.6506C438.546 42.0288 437.749 43.2178 436.771 44.2177C435.804 45.23 434.605 45.9798 433.176 46.467C431.757 46.9553 430.053 47.1015 428.062 46.9054Z" fill="#050000"/>
<path d="M491.196 47.8054L491.608 11.4505L500.531 14.1571L498.931 37.576L499.208 37.6601L511.606 17.5168L518.881 19.7236L517.984 43.4092L518.261 43.4933L529.973 23.0883L538.879 25.7899L519.04 56.2517L511.259 53.8915L511.386 31.8068L511.125 31.7277L498.961 50.1607L491.196 47.8054Z" fill="#050000"/>
<path d="M536.411 63.858C533.87 62.8056 531.902 61.3814 530.505 59.5854C529.124 57.7832 528.327 55.7433 528.114 53.4658C527.916 51.1821 528.33 48.8014 529.357 46.3237C530.387 43.8356 531.778 41.8593 533.528 40.395C535.293 38.9245 537.3 38.0457 539.546 37.7587C541.808 37.4655 544.209 37.8451 546.75 38.8975C549.29 39.9499 551.251 41.3771 552.633 43.1793C554.029 44.9754 554.826 47.0152 555.024 49.2989C555.237 51.5764 554.828 53.9593 553.797 56.4475C552.771 58.9251 551.375 60.8992 549.61 62.3697C547.86 63.834 545.854 64.7128 543.592 65.006C541.345 65.293 538.951 64.9104 536.411 63.858ZM538.865 58.0666C539.789 58.4492 540.688 58.4897 541.564 58.1881C542.439 57.8864 543.253 57.3013 544.007 56.4325C544.771 55.5682 545.427 54.4746 545.974 53.1518C546.531 51.8079 546.845 50.5603 546.916 49.409C546.997 48.2619 546.835 47.2723 546.43 46.4401C546.024 45.6079 545.36 45.0005 544.436 44.6178C543.48 44.2221 542.554 44.1707 541.658 44.4636C540.772 44.761 539.948 45.3418 539.184 46.2062C538.43 47.0749 537.775 48.1811 537.219 49.525C536.671 50.8478 536.356 52.0827 536.274 53.2297C536.203 54.3811 536.376 55.3751 536.792 56.2116C537.219 57.0525 537.91 57.6708 538.865 58.0666Z" fill="#050000"/>
<path d="M562.147 75.0793L574.488 51.989L581.629 55.8057L579.379 60.0149L579.62 60.1434C580.855 58.8451 582.147 58.0796 583.495 57.8468C584.849 57.6041 586.157 57.8202 587.42 58.4952C587.761 58.6773 588.098 58.8898 588.432 59.1328C588.772 59.3657 589.072 59.6103 589.335 59.8666L585.92 66.2555C585.633 65.9477 585.223 65.6061 584.69 65.2306C584.166 64.8605 583.684 64.5576 583.243 64.3219C582.371 63.8558 581.48 63.6308 580.569 63.6466C579.674 63.6579 578.841 63.9021 578.071 64.3793C577.316 64.8519 576.692 65.5492 576.199 66.4712L569.498 79.0085L562.147 75.0793Z" fill="#050000"/>
<path d="M601.34 90.0292L606.889 81.7854L607.853 82.4293L619.184 78.7253L627.036 83.9717L610.475 89.0601L608.647 87.8385L601.34 90.0292ZM591.274 91.5645L610.668 62.5387L617.599 67.1695L598.204 96.1954L591.274 91.5645ZM604.794 100.599L605.139 87.7497L612.988 85.8811L612.802 105.949L604.794 100.599Z" fill="#050000"/>
<path d="M666.442 104.889L673.83 112.277L664.815 133.828L665.104 134.117L686.655 125.102L694.043 132.49L669.359 157.175L663.549 151.365L678.712 136.203L678.507 135.998L657.571 145.074L653.859 141.361L663.019 120.341L662.814 120.136L647.567 135.383L641.757 129.573L666.442 104.889Z" fill="#050000"/>
<path d="M667.519 170.996C666.884 170.223 666.347 169.443 665.908 168.657C665.46 167.878 665.131 167.164 664.92 166.513L670.766 164.098C671.074 164.903 671.42 165.575 671.803 166.113C672.193 166.66 672.64 167.035 673.145 167.239C673.648 167.458 674.233 167.463 674.9 167.254L675.711 167.007L690.784 142.597L696.32 149.344L684.939 164.924L685.112 165.135L702.657 157.065L708.226 163.851L679.789 174.421C678.38 174.96 676.976 175.238 675.577 175.254C674.177 175.285 672.8 174.968 671.444 174.301C670.096 173.644 668.788 172.542 667.519 170.996Z" fill="#050000"/>
<path d="M711.525 216.275L737.523 190.859L741.918 199.082L724.227 214.51L724.364 214.766L747.374 209.289L750.958 215.994L733.575 232.108L733.712 232.363L756.422 226.216L760.809 234.424L725.241 241.936L721.408 234.765L737.114 219.238L736.985 218.998L715.349 223.43L711.525 216.275Z" fill="#050000"/>
<path d="M732.145 259.597C731.093 257.056 730.708 254.657 730.991 252.4C731.288 250.149 732.167 248.143 733.627 246.382C735.102 244.627 737.078 243.237 739.556 242.21C742.044 241.18 744.425 240.766 746.698 240.968C748.986 241.176 751.026 241.974 752.817 243.359C754.624 244.751 756.053 246.717 757.106 249.258C758.158 251.799 758.536 254.195 758.238 256.446C757.955 258.703 757.077 260.709 755.602 262.464C754.142 264.225 752.168 265.621 749.68 266.651C747.202 267.678 744.819 268.086 742.531 267.878C740.258 267.676 738.218 266.879 736.411 265.487C734.62 264.101 733.198 262.138 732.145 259.597ZM737.976 257.237C738.359 258.161 738.966 258.826 739.798 259.232C740.63 259.637 741.62 259.799 742.767 259.718C743.918 259.647 745.155 259.337 746.478 258.789C747.822 258.233 748.926 257.572 749.791 256.808C750.659 256.055 751.244 255.241 751.546 254.365C751.848 253.49 751.807 252.591 751.425 251.667C751.029 250.711 750.411 250.02 749.57 249.594C748.733 249.178 747.739 249.005 746.588 249.076C745.441 249.158 744.195 249.477 742.852 250.033C741.529 250.581 740.433 251.232 739.564 251.985C738.7 252.749 738.119 253.574 737.822 254.46C737.529 255.356 737.58 256.282 737.976 257.237Z" fill="#050000"/>
<path d="M742.409 285.73L767.463 278.129L769.813 285.877L765.246 287.263L765.325 287.524C767.117 287.479 768.572 287.851 769.69 288.64C770.819 289.426 771.591 290.504 772.006 291.874C772.119 292.244 772.207 292.633 772.271 293.041C772.347 293.445 772.386 293.831 772.391 294.198L765.458 296.301C765.473 295.88 765.425 295.349 765.313 294.706C765.204 294.074 765.078 293.519 764.932 293.04C764.645 292.094 764.174 291.305 763.519 290.672C762.879 290.047 762.117 289.631 761.235 289.424C760.367 289.224 759.432 289.276 758.432 289.579L744.828 293.706L742.409 285.73Z" fill="#050000"/>
<path d="M759.551 324.015L769.305 322.11L769.531 323.247L780.162 328.64L782.004 337.901L766.696 329.789L766.267 327.632L759.551 324.015ZM751.348 317.983L785.586 311.172L787.212 319.347L752.974 326.158L751.348 317.983ZM754.52 333.931L763.849 325.089L770.721 329.318L756.399 343.377L754.52 333.931Z" fill="#050000"/>
<path d="M795.909 380.494V390.942L774.295 399.806V400.215L795.909 409.079V419.528H761V411.312H782.443V411.022L761.222 402.636V397.386L782.563 388.999V388.71H761V380.494H795.909Z" fill="#050000"/>
<path d="M749.095 428.062C749.193 427.067 749.364 426.136 749.609 425.27C749.843 424.402 750.116 423.664 750.427 423.055L756.269 425.481C755.917 426.268 755.686 426.988 755.576 427.639C755.465 428.302 755.517 428.883 755.73 429.384C755.931 429.895 756.341 430.312 756.96 430.636L757.708 431.035L785.626 424.433L784.771 433.118L765.706 436.087L765.679 436.359L783.792 443.058L782.931 451.794L755.349 439.161C753.971 438.546 752.782 437.749 751.782 436.771C750.77 435.804 750.02 434.605 749.533 433.176C749.045 431.757 748.899 430.053 749.095 428.062Z" fill="#050000"/>
<path d="M748.195 491.196L784.55 491.608L781.843 500.531L758.424 498.931L758.34 499.208L778.483 511.606L776.276 518.881L752.591 517.984L752.507 518.261L772.912 529.973L770.21 538.879L739.748 519.04L742.109 511.259L764.193 511.386L764.272 511.125L745.839 498.961L748.195 491.196Z" fill="#050000"/>
<path d="M732.142 536.411C733.194 533.87 734.619 531.902 736.415 530.505C738.217 529.124 740.257 528.327 742.534 528.114C744.818 527.916 747.199 528.33 749.676 529.357C752.164 530.387 754.141 531.778 755.605 533.528C757.075 535.293 757.954 537.3 758.241 539.546C758.534 541.808 758.155 544.209 757.103 546.75C756.05 549.29 754.623 551.251 752.821 552.633C751.025 554.029 748.985 554.826 746.701 555.024C744.424 555.237 742.041 554.828 739.553 553.797C737.075 552.771 735.101 551.375 733.63 549.61C732.166 547.86 731.287 545.854 730.994 543.592C730.707 541.345 731.09 538.951 732.142 536.411ZM737.933 538.865C737.551 539.789 737.51 540.688 737.812 541.564C738.114 542.439 738.699 543.253 739.567 544.007C740.432 544.771 741.525 545.427 742.848 545.974C744.192 546.531 745.44 546.845 746.591 546.916C747.738 546.997 748.728 546.835 749.56 546.43C750.392 546.024 750.999 545.36 751.382 544.436C751.778 543.48 751.829 542.554 751.536 541.658C751.239 540.772 750.658 539.948 749.794 539.184C748.925 538.43 747.819 537.775 746.475 537.219C745.152 536.671 743.917 536.356 742.77 536.274C741.619 536.203 740.625 536.376 739.788 536.792C738.947 537.219 738.329 537.91 737.933 538.865Z" fill="#050000"/>
<path d="M720.921 562.147L744.011 574.488L740.194 581.629L735.985 579.379L735.857 579.62C737.155 580.855 737.92 582.147 738.153 583.495C738.396 584.849 738.18 586.157 737.505 587.42C737.323 587.761 737.11 588.098 736.867 588.432C736.634 588.772 736.39 589.072 736.133 589.335L729.745 585.92C730.052 585.633 730.394 585.223 730.769 584.69C731.14 584.166 731.442 583.684 731.678 583.243C732.144 582.371 732.369 581.48 732.353 580.569C732.342 579.674 732.098 578.841 731.621 578.071C731.148 577.316 730.451 576.692 729.529 576.199L716.992 569.498L720.921 562.147Z" fill="#050000"/>
<path d="M705.971 601.34L714.215 606.889L713.571 607.853L717.275 619.184L712.028 627.036L706.94 610.475L708.162 608.647L705.971 601.34ZM704.435 591.274L733.461 610.668L728.831 617.599L699.805 598.204L704.435 591.274ZM695.401 604.794L708.25 605.139L710.119 612.988L690.051 612.802L695.401 604.794Z" fill="#050000"/>
<path d="M691.111 666.442L683.723 673.83L662.172 664.815L661.883 665.104L670.898 686.655L663.51 694.043L638.825 669.359L644.635 663.549L659.797 678.712L660.002 678.507L650.926 657.571L654.639 653.859L675.659 663.019L675.864 662.814L660.617 647.567L666.427 641.757L691.111 666.442Z" fill="#050000"/>
<path d="M625.004 667.519C625.777 666.884 626.557 666.348 627.343 665.908C628.122 665.46 628.836 665.131 629.487 664.92L631.902 670.766C631.097 671.074 630.425 671.42 629.887 671.803C629.34 672.193 628.965 672.64 628.761 673.145C628.542 673.648 628.537 674.233 628.746 674.9L628.993 675.711L653.403 690.784L646.656 696.32L631.076 684.939L630.865 685.112L638.935 702.657L632.149 708.226L621.579 679.789C621.04 678.38 620.762 676.976 620.746 675.577C620.715 674.177 621.032 672.8 621.699 671.444C622.356 670.096 623.458 668.788 625.004 667.519Z" fill="#050000"/>
<path d="M579.725 711.525L605.141 737.523L596.918 741.918L581.49 724.227L581.234 724.364L586.711 747.374L580.006 750.958L563.892 733.575L563.637 733.712L569.784 756.422L561.576 760.809L554.064 725.241L561.235 721.408L576.762 737.114L577.002 736.985L572.57 715.349L579.725 711.525Z" fill="#050000"/>
<path d="M536.403 732.145C538.944 731.093 541.343 730.708 543.6 730.991C545.851 731.288 547.857 732.167 549.618 733.627C551.373 735.102 552.763 737.078 553.79 739.556C554.82 742.044 555.234 744.425 555.032 746.698C554.824 748.986 554.027 751.026 552.641 752.817C551.249 754.624 549.283 756.053 546.742 757.106C544.201 758.158 541.805 758.536 539.554 758.238C537.297 757.955 535.291 757.077 533.536 755.602C531.775 754.142 530.379 752.168 529.349 749.679C528.322 747.202 527.914 744.819 528.122 742.531C528.324 740.258 529.121 738.218 530.513 736.411C531.899 734.62 533.862 733.198 536.403 732.145ZM538.763 737.976C537.839 738.358 537.174 738.966 536.768 739.798C536.363 740.63 536.201 741.62 536.282 742.767C536.353 743.918 536.663 745.155 537.211 746.478C537.767 747.822 538.428 748.926 539.192 749.791C539.945 750.659 540.759 751.244 541.635 751.546C542.51 751.848 543.409 751.807 544.333 751.425C545.289 751.029 545.98 750.411 546.406 749.57C546.822 748.733 546.995 747.739 546.924 746.588C546.842 745.441 546.523 744.195 545.967 742.851C545.419 741.529 544.768 740.433 544.015 739.564C543.251 738.7 542.426 738.119 541.54 737.822C540.644 737.529 539.718 737.58 538.763 737.976Z" fill="#050000"/>
<path d="M510.27 742.409L517.871 767.463L510.123 769.813L508.737 765.246L508.476 765.325C508.521 767.117 508.149 768.572 507.36 769.69C506.574 770.819 505.496 771.591 504.126 772.006C503.756 772.119 503.367 772.207 502.96 772.271C502.555 772.347 502.169 772.386 501.802 772.391L499.699 765.458C500.12 765.473 500.651 765.425 501.294 765.313C501.926 765.204 502.481 765.078 502.96 764.932C503.906 764.645 504.695 764.174 505.328 763.519C505.953 762.879 506.369 762.117 506.576 761.235C506.776 760.367 506.724 759.432 506.421 758.432L502.294 744.828L510.27 742.409Z" fill="#050000"/>
<path d="M471.985 759.551L473.89 769.305L472.753 769.531L467.36 780.162L458.099 782.004L466.211 766.696L468.368 766.267L471.985 759.551ZM478.017 751.348L484.828 785.586L476.653 787.212L469.842 752.974L478.017 751.348ZM462.069 754.52L470.911 763.849L466.682 770.721L452.623 756.399L462.069 754.52Z" fill="#050000"/>
</svg>
