<?xml version="1.0" encoding="utf-8"?>
<!-- Generator: Adobe Illustrator 24.1.2, SVG Export Plug-In . SVG Version: 6.00 Build 0)  -->
<svg version="1.1" id="Layer_1" xmlns="http://www.w3.org/2000/svg" xmlns:xlink="http://www.w3.org/1999/xlink" x="0px" y="0px"
	 viewBox="0 0 141.73 141.73" style="enable-background:new 0 0 141.73 141.73;" xml:space="preserve">
<style type="text/css">
	.st0{fill-rule:evenodd;clip-rule:evenodd;fill:#0B57FF;}
	.st1{fill:#FFFFFF;}
</style>
<g>
	<path class="st0" d="M83.15,19.39c0.72-0.03,0.72-0.03,0.78-0.96c0.27-0.1,0.56-0.17,0.81-0.32c0.86-0.51,0.85-0.52,1.52,0.3
		c1.22-0.15,2.36,0.19,3.51,0.56c1.07,0.34,2.01,0.92,2.92,1.57c0.19,0.13,0.45,0.28,0.5,0.47c0.25,0.9,0.91,1.41,1.55,1.97
		c0.15,0.13,0.23,0.4,0.26,0.62c0.11,0.79,0.71,1.47,1.35,1.29c0.42-0.12,0.73,0.04,1.09,0.05c0.37,0.01,0.83,0.25,1.07-0.33
		c0.04-0.1,0.33-0.2,0.38-0.16c0.67,0.62,1.46,0.02,2.17,0.25c0.04,0.19,0.03,0.43,0.14,0.56c1.21,1.4,2.8,2.16,4.45,2.84
		c0.02,0.01,0.06-0.05,0.14-0.12c-0.26-0.51-0.65-0.91-1.13-1.23c-0.73-0.49-1.42-1.05-2.17-1.49c-0.44-0.26-0.97-0.35-1.45-0.52
		c-0.22-0.26-0.45-0.51-0.75-0.85c0.31-0.14,0.53-0.24,0.8-0.37c-0.24-0.47-0.71-0.98,0.19-1.38c1.47,0.95,2.79,2.13,3.89,3.59
		c0.27,0.36,0.59,0.63,1,0.87c0.82,0.48,1.54,1.16,2.25,1.81c0.59,0.54,1.32,0.94,1.58,1.84c0.07,0.27,0.6,0.4,0.97,0.62
		c-0.06,0.28-0.13,0.57-0.21,0.91c1.02-0.24,1.59,0.53,2.16,1.12c1.05,1.09,2.02,2.27,2.99,3.44c0.25,0.31,0.8,0.61,0.22,1.19
		c-0.07,0.07,0.27,0.84,0.57,1.03c1.04,0.67,1.48,1.8,2.21,2.77c-0.42,0.17-0.56,0.89-1.13,0.4c-0.35-0.79-0.47-0.82-1.35-0.19
		c0.52,0.06,0.96,0.11,1.39,0.15c-0.27,0.15-0.54,0.3-0.81,0.45c0.74,0.87,0.8,1.02,1.42,3.98c-0.47,0.08-0.95,0.16-1.46,0.25
		c0.01,0.59-0.06,1.17,0.04,1.71c0.17,0.94,0.03,1.93,0.51,2.82c0.15,0.27,0.06,0.68,0.08,1.03c0.08,1.22,0.17,2.44,0.27,3.8
		c0.18,0.13,0.47,0.33,0.98,0.69c-0.86-1.77-0.61-3.47-0.85-5.11c0.51-0.09,0.62,0.15,0.67,0.52c0.16,1.18,0.33,2.36,0.51,3.62
		c1.13,0.08,1.03,1.07,1.27,1.94c-0.17,0.04-0.34,0.08-0.59,0.14c0.45,0.97-0.12,1.98,0.31,3.11c-0.35-0.11-0.52-0.16-0.78-0.24
		c0,0.6,0,1.17,0,1.83c-0.78-0.12-0.73-0.68-0.78-1.14c-0.05-0.45-0.06-0.9-0.1-1.5c-0.58,0.69-0.78,1.8-0.51,2.29
		c0.36,0.66,0.96,0.93,1.75,1.02c0-0.37,0-0.73,0-1.39c0.42,0.53,0.66,0.84,1.05,1.34c0.11-0.91,0.23-1.62,0.28-2.34
		c0.04-0.7,0.01-1.4,0.1-2.1c0.62,1.42,0.46,2.9,0.22,4.33c-0.07,0.42,0.05,0.74,0.03,1.1c-0.07,1.39-0.17,2.78-0.26,4.17
		c0,0.04,0.01,0.09-0.01,0.12c-0.63,0.77-0.38,1.62-0.26,2.48c0.06,0.43-0.06,0.9-0.14,1.34c-0.29,1.65-0.58,3.3-0.91,4.95
		c-0.14,0.7-0.38,1.38-0.57,2.06c-0.33,1.21-0.33,1.38-0.01,2.41c-0.58-0.06-0.83,0.39-0.96,0.82c-0.47,1.53-1.48,2.94-1,4.69
		c0.03,0.1-0.01,0.24-0.06,0.34c-0.33,0.62-0.43,1.25-0.29,1.96c0.05,0.24-0.14,0.52-0.21,0.79c-0.26,0.33-0.52,0.66-0.77,0.98
		c0.05,0.37,0.1,0.71,0.14,1.06c-0.83-0.01-0.87,0.06-0.78,1.68c0.33-0.73,0.54-1.21,0.76-1.7c0.16-0.23,0.4-0.44,0.47-0.69
		c0.11-0.44,0.12-0.91,0.17-1.36c0.62,0.03,0.87-0.42,1.05-0.92c0.17-0.45,0.26-0.92,0.43-1.37c0.13-0.34,0.34-0.65,0.58-1.08
		c0.58,0.78-0.19,1.22-0.07,1.9c0.35-0.36,0.6-0.73,0.95-0.95c0.48-0.32,0.2-0.8,0.34-1.17c0.34-0.88,0.65-1.78,1.11-2.59
		c0.35-0.62,0.92-0.29,1.5-0.05c-0.37,1.03-0.71,2-1.06,2.98c0.08,0.03,0.16,0.06,0.25,0.1c0.12-0.26,0.21-0.56,0.39-0.77
		c0.12-0.14,0.37-0.16,0.56-0.24c0.06,0.2,0.19,0.41,0.16,0.61c-0.03,0.27-0.17,0.52-0.17,0.82c0.78-0.51,0.43-1.48,0.92-2.16
		c0.42-0.6,0.55-1.42,0.92-2.11c0.14,1.09-0.12,2.13-0.45,3.11c-0.7,2.07-1.69,4.01-2.83,5.87c-0.42,0.69-0.7,1.49-1.04,2.23
		l0.04-0.04c-0.38,0.27-0.76,0.53-1.13,0.81c-0.12,0.09-0.27,0.18-0.34,0.31c-1.07,2.12-2.65,3.83-4.14,5.63
		c-0.55,0.66-0.83,1.58-1.19,2.39c-0.43,0.95-0.67,1.13-1.65,1.05c0.08,0.17,0.15,0.3,0.22,0.42c0.07,0.13,0.15,0.26,0.25,0.43
		c-0.86,0.83-1.37,1.97-2.51,2.48c-0.22,0.1-0.28,0.6-0.47,1.07c-0.4-0.21-0.74-0.39-1.08-0.58c0.29-0.28,0.58-0.55,0.87-0.83
		c0.54-0.13,1.23-0.07,1.19-1.26c-0.49,0.55-0.83,0.92-1.16,1.3c-0.43,0.11-1.01,0.06-0.87,0.82c-0.89,0.38-1.57,1.03-2.13,1.82
		l0.03-0.04c-1.08,0.89-2.16,1.78-3.31,2.72c0.06,0.2,0.13,0.45,0.22,0.75c-0.85,1.16-1.99,1.93-3.24,2.56
		c-0.52-0.68,1.07-0.56,0.3-1.32c-0.43,0.28-0.87,0.57-1.42,0.93c0.33,0.09,0.63,0.16,0.92,0.24c-0.09,0.17-0.17,0.33-0.26,0.5
		c-0.43,0.31-0.82,0.69-1.29,0.91c-1.35,0.62-2.42,1.85-3.99,2.07c-0.02-0.41,0.03-0.8-0.5-0.72c-0.18,0.31-0.29,0.76-0.55,0.91
		c-0.28,0.16-0.72,0.1-1.07,0.02c-0.64-0.14-0.87,0.34-1.18,0.82c-0.59-0.35-1.22-0.67-1.77-0.08c-0.28,0.3-0.43,0.71-0.92,0.38
		c-0.04-0.03-0.14,0.06-0.21,0.07c-0.58,0.12-0.78,0.99-1.63,0.73c-0.51-0.16-1.17,0.16-1.75,0.33c-0.88,0.26-1.74,0.59-2.62,0.85
		c-0.48,0.14-0.97,0.3-1.46,0.29c-0.81-0.02-1.54,0.06-2.19,0.63c-0.15,0.13-0.42,0.15-0.64,0.18c-0.75,0.09-1.51,0.16-2.26,0.24
		c-0.58,0.06-1.17,0.32-1.75-0.05c-0.1-0.07-0.3,0-0.45,0.03c-2.44,0.53-4.9,0.27-7.35,0.08c-0.48-0.04-0.95-0.29-1.43-0.45l-0.01,0
		c0-0.08-0.02-0.17,0-0.24c0.17-0.39,0.09-0.76-0.26-0.9c-0.28-0.11-0.66-0.09-0.95,0.02c-0.48,0.19-0.81,0.64-1.44,0.61
		c-0.44-0.02-0.81,0.09-0.93-0.27c-0.54,0.21-0.98,0.39-1.41,0.56c-0.14,0.06-0.37,0.07-0.42,0.17c-0.43,0.9-1.09,0.58-1.87,0.24
		c0.06,0.34,0.09,0.53,0.13,0.73c-0.81,0.4-0.81,0.4-1.8,0.05c0.03-0.2,0.06-0.41,0.1-0.7c-0.25,0.09-0.45,0.16-0.68,0.23
		c-0.09-0.16-0.18-0.32-0.27-0.48c-0.26,0.18-0.51,0.35-0.79,0.53c-0.74-0.31-1.48-0.62-2.23-0.93c0-0.26,0.09-0.65-0.02-0.73
		c-0.42-0.29-1-0.19-1.43-0.52c-0.81,0.65-1.27-0.16-1.8-0.5c-1.13-0.73-2.21-1.54-3.32-2.31c-1.78-1.22-3.59-2.43-4.96-4.15
		c-0.57-0.71-1.22-1.18-1.95-1.68c-1.7-1.15-3.58-2.15-4.71-4.05c-0.02-0.03-0.04-0.08-0.07-0.09c-1.63-0.86-2.59-2.5-4-3.64
		c-0.94-0.76-1.68-1.82-2.43-2.81c-0.3-0.4-0.14-1.07-0.63-1.44c-0.42-0.32-0.8-0.69-1.19-1.05c-0.12-0.1-0.31-0.21-0.32-0.33
		c-0.11-1.44-1.58-2.05-1.89-3.37c-0.11-0.45-0.43-0.85-0.54-1.3c-0.28-1.14-0.57-2.23-1.55-2.99c-0.27-0.21-0.49-0.68-0.5-1.04
		c-0.03-0.77-0.44-1.31-0.81-1.89c-0.68-1.09-0.9-2.36-1.29-3.56c-0.11-0.35-0.35-0.66-0.52-1c-0.15-0.31-0.36-0.62-0.42-0.96
		c-0.18-1.01-0.3-2.02-0.45-3.15c0.18-0.09,0.43-0.22,0.74-0.38c-0.17-0.55,0.12-1.25-0.66-1.68c-0.04,0.48-0.07,0.87-0.09,1.26
		c-0.29-0.93-0.77-1.78-0.67-2.81c0.04-0.39-0.23-0.81-0.36-1.22c-0.26-0.83-0.3-1.6,0.2-2.39c0.3-0.47,0.55-1.06,0.07-1.65
		c-0.12-0.15-0.04-0.46-0.1-0.68c-0.08-0.29-0.15-0.61-0.32-0.82c-0.51-0.63-0.56-1.31-0.09-2.06c0.54,0.13,0.97,0.31,1.04,1.04
		c0.03,0.33,0.43,0.61,0.69,0.95c0.88-0.93-0.68-1.36-0.17-2.2c-0.32,0.05-0.49,0.08-0.76,0.13c-0.14-0.62-0.35-1.24-0.38-1.87
		c-0.01-0.22,0.4-0.59,0.68-0.68c0.75-0.25,1.45,0.3,1.52,1.14c0.1,1.22,0.16,2.45,0.23,3.67c0.02,0.37,0.1,0.63,0.68,0.49
		c0.03-0.63,0.18-1.32,0.05-1.95c-0.12-0.58-0.02-1.08,0.07-1.61c0.3-1.84,0.75-3.64,1.34-5.4c0.16-0.47,0.12-1.01,0.19-1.51
		c0.03-0.21,0.11-0.41,0.17-0.61c0.05-0.14,0.18-0.32,0.14-0.42c-0.53-1.36,0.52-2.38,0.56-3.79c0.44,0.38,0.7,0.61,1,0.87
		c0.32-0.24,0.66-0.48,0.89-0.66c0.12-0.5,0.25-0.89,0.29-1.28c0.04-0.33-0.02-0.67-0.03-1l-0.04,0.04c0.82-0.71,0.83-0.75,0.24-1.6
		c-0.13-0.03-0.25-0.06-0.38-0.08c0.02-0.19-0.03-0.5,0.06-0.55c0.77-0.42,0.74-1.29,1.11-1.93c0.62-1.09,1.41-2.08,2.12-3.11
		c0.2-0.29,0.42-0.57,0.61-0.86c0.64-1.01,0.67-1.03,1.89-1.24c-0.27-1.36,0.89-1.87,1.56-2.63c1.1-1.25,2.44-2.3,3.55-3.51
		c1.17-1.27,2.62-2.11,3.82-3.3c0.42-0.42,0.92-0.78,1.43-1.07c0.91-0.51,1.39-1.31,1.73-2.25c-0.48-0.65-1-0.08-1.55-0.06
		c0.04-0.3,0.07-0.55,0.1-0.81c-1.28,0.18-2.17,0.98-2.97,1.94c-0.12,0.15-0.21,0.42-0.17,0.61c0.16,0.77,0.04,0.95-0.66,0.87
		c-0.14-0.02-0.28-0.07-0.55-0.14c-0.12,0.52-0.17,1.01-0.34,1.44c-0.18,0.44-0.5,0.91-1.02,0.82c-0.55-0.1-0.53,0.96-1.06,0.57
		c-0.46-0.19-0.11-1.07-0.85-0.82c-0.04-0.13-0.07-0.26-0.11-0.39c-0.08-0.26-0.17-0.51-0.25-0.75c-2.08,2.21-4.07,4.31-6.12,6.5
		c-0.06-0.1-0.16-0.2-0.17-0.3c-0.01-0.55,0.83-1.98,1.31-2.25c0.07-0.04,0.18-0.04,0.2-0.09c0.39-1,1.5-1.41,1.91-2.3
		c0.29-0.65,0.64-1.2,1.09-1.71c0.23-0.26,0.48-0.53,0.77-0.71c1.51-0.97,2.82-2.15,3.87-3.65c0.13-0.19,0.3-0.37,0.48-0.51
		c1.1-0.87,2.19-1.75,3.33-2.56c0.27-0.2,0.7-0.16,1.1-0.24c-0.12-0.29-0.23-0.55-0.33-0.8c0.53-0.22,1-0.42,1.59-0.67
		c-0.3-0.39-0.51-0.65-0.68-0.88c-0.83,0.04-0.15,1.12-0.89,1.19c-0.47,0.04-0.95,0.1-1.42,0.21c-0.62,0.14-0.96-0.25-1.39-0.67
		c1.11-1.2,2.29-2.3,3.66-2.88c1.36-0.58,2.42-2.1,4.22-1.49c0.07,0.23,0.19,0.6,0.3,0.97c0.08-0.01,0.16-0.03,0.24-0.04
		c0.04-0.54,0.54-1.03,0.04-1.6c0.35-0.27,0.75-0.5,1.04-0.82c0.71-0.79,1.43-1.17,2.53-0.75c0.4,0.16,1.14,0.51,1.5-0.3l-0.03,0.01
		c0.43-0.11,0.87-0.18,1.28-0.33c0.2-0.08,0.36-0.3,0.53-0.46l-0.03-0.03c0.06,0.78,0.59,0.76,1.09,0.65
		c1.04-0.24,2.06-0.55,3.1-0.8c0.18-0.04,0.38,0.05,0.62,0.17c-0.87,0.54-1.28,1.35-1.6,2.25c-0.06,0.17-0.38,0.25-0.81,0.5
		c1.18,0.08,1.94-0.41,2.65-0.62c-0.01-0.48-0.13-0.95,0.01-1.33c0.1-0.25,0.54-0.38,0.85-0.52c0.17-0.08,0.38-0.04,0.57-0.08
		c0.69-0.16,1.39-0.25,2.08-0.42c1.38-0.34,2.84-0.43,4.27-0.39c1.35,0.04,2.69,0.12,4.01-0.14c0.89-0.18,1.74-0.53,2.56-0.79
		c0.23,0.34,0.37,0.55,0.55,0.81c0.24-0.2,0.44-0.32,0.59-0.48c0.37-0.43,0.73-0.33,1.11-0.02c0.87,0.72,0.87,0.72,1.81-0.21
		c0.65,0.3,1.34,0.62,2.14,0.99c0.21-0.14,0.5-0.32,0.8-0.52c0.09,0.01,0.22,0,0.31,0.05c0.52,0.3,0.96,0.39,1.6,0.13
		c0.69-0.28,1.49,0.05,2.19,0.44c0,0.29-0.04,0.57,0.01,0.83c0.04,0.19,0.18,0.49,0.31,0.51c0.65,0.07,0.37,0.58,0.45,0.91
		c-0.69,0.08-1.38,0.16-2.07,0.24c-0.33-0.4-0.33-0.4-0.99-0.02c0.48,0,0.74,0,1.01,0c0.05,0.1,0.08,0.26,0.16,0.29
		c0.94,0.4,1.92,0.63,2.99,0.81C84.15,19.95,83.6,19.72,83.15,19.39z M90.16,115.76c-1.43,0.07-1.62,0.22-1.77,1.41
		c0.65-0.04,0.82-1.26,1.64-0.65c0.04-0.33,0.08-0.56,0.11-0.79c0.64,0.12,1.24,0.16,1.43-0.7c0.26,0.04,0.57,0.21,0.76,0.11
		c0.81-0.42,1.57-0.91,2.36-1.37c-0.85,0.18-1.67,0.46-2.47,0.79c-0.23,0.1-0.41,0.33-0.62,0.51
		C91,115.03,90.41,115.01,90.16,115.76z M120.1,90.31c-0.2,0.07-0.5,0.07-0.6,0.22c-0.45,0.69-0.85,1.41-1.23,2.15
		c-0.05,0.1,0.08,0.31,0.17,0.62c0.55-0.75,0.93-1.43,1.47-1.95c0.39-0.38,0.29-0.67,0.16-1.05c0.7-0.84,1.16-1.79,1.32-2.92
		c-0.48,0.45-0.96,0.92-1.21,1.5C120,89.27,119.69,89.81,120.1,90.31z M111.45,98.22c-1.07,0.41-0.94,1.41-1.13,2.32
		c1.51-0.25,1.88-0.6,1.96-1.97c-0.35,0.31-0.61,0.54-0.87,0.77c0-0.38,0-0.77,0-1.15c0.67-0.06,0.73-0.51,0.52-1.12
		C111.78,97.45,111.62,97.84,111.45,98.22z M72.79,118.47c-1.73,1.1-3.47,0.73-5.15,0.51c-1.03,0.51-2.09,0.65-3.26,0.52
		c0.17,0.81-0.33,1.32-0.82,1.82c0.67,0.55,1.33,0.71,1.8,0.51c0.4-0.17,0.84-0.25,1.24-0.43c0.34-0.15,0.64-0.41,0.98-0.55
		c0.45-0.19,0.2-0.63,0.34-0.99c0.41,0.05,0.78,0.09,1.12,0.13c0.17,0.36,0.3,0.65,0.55,1.17c0.42-0.61,0.71-1.03,0.93-1.34
		c0.6,0.05,1.15,0.1,1.69,0.15c0.09,0.22,0.19,0.45,0.33,0.78c0.42-0.52,0.76-0.94,1.01-1.25c1.13-0.06,2.13-0.14,3.13-0.17
		c0.75-0.02,1.48-0.07,2.15-0.46c0.11-0.06,0.3,0.02,0.45,0.05c0.69,0.13,1.41,0.21,1.72,1.07c0.39-0.27,0.7-0.64,1.02-0.66
		c0.67-0.05,0.73-0.62,0.92-1.01c0.18-0.38,0.13-0.89,0.17-1.25c0.18-0.3,0.53-0.66,0.46-0.8c-0.24-0.48-0.6-0.07-0.87,0.06
		c-0.19,0.09-0.32,0.31-0.47,0.49c-0.19,0.21-0.35,0.46-0.55,0.65c-0.48,0.46-0.99,0.89-1.5,1.35c-0.11-0.14-0.17-0.29-0.25-0.31
		c-0.63-0.12-1.29-0.37-1.89-0.27c-0.54,0.09-1.01,0.04-1.53-0.03c-0.22-0.03-0.47,0.18-0.71,0.23
		C74.79,118.65,73.8,119.04,72.79,118.47z M116.83,81.7c0.06-0.15,0.14-0.37,0.22-0.59c0.79-1.99,1.05-4.13,1.67-6.16
		c0.33-1.08,0.3-1.09-0.75-1.83c-0.22,0.47-0.49,0.9-0.63,1.38c-0.19,0.66-0.47,1.2-0.94,1.72c-0.29,0.33-0.36,0.97-0.34,1.46
		c0.01,0.27,0.39,0.53,0.68,0.88c-0.14,0.28-0.25,0.66-0.49,0.93c-0.3,0.35-0.19,0.67-0.05,0.98
		C116.38,80.91,116.62,81.3,116.83,81.7z M43.87,114.64c0.3,0.61,0.49,1.23,1.27,1.31c0.25,0.03,0.47,0.28,0.72,0.37
		c0.79,0.28,1.59,0.74,2.39,0.73c0.55-0.01,1.15-0.33,1.8-0.17c-0.72-1-1.89-1.17-2.61-1.73c-0.36,0.25-0.61,0.55-0.8,0.51
		c-0.46-0.08-0.95-0.24-1.34-0.5C44.86,114.86,44.47,114.57,43.87,114.64z M72.81,122.59c-0.05-0.22-0.11-0.44-0.17-0.69
		c-0.34,0.04-0.62,0.07-0.89,0.11c-0.02,0.25-0.03,0.43-0.04,0.61c-1.11-0.14-2.36,0.05-2.93,0.47c0.41,0,0.75-0.05,1.06,0.01
		c1.16,0.23,2.4-0.48,3.51,0.49c0.33,0.29,0.64-0.17,0.64-0.73C73.59,122.76,73.2,122.67,72.81,122.59z M119.19,69.35
		c-0.91,0.61-1.04,1.1-0.65,2.61c0.54-0.66,1.03-1.25,1.52-1.86C119.73,69.81,119.46,69.58,119.19,69.35z M110.26,92.82
		c0.13,0.02,0.26,0.05,0.38,0.07c0.46-0.67,0.93-1.32,1.36-2.01c0.06-0.09-0.09-0.4-0.21-0.5c-0.1-0.08-0.41-0.08-0.48,0.01
		c-0.4,0.51-0.8,1.04-1.12,1.62C110.09,92.21,110.23,92.55,110.26,92.82z M77.09,95.5c0.07,0.08,0.15,0.16,0.22,0.23
		c0.9-0.45,1.81-0.87,2.51-1.8c-0.61,0-1.1,0-1.62,0C77.83,94.46,77.46,94.98,77.09,95.5z M89.59,118.23
		c-0.25-0.19-0.5-0.38-0.51-0.38c-0.48,0.6-0.8-0.03-1.13-0.23c-0.15,0.19-0.26,0.3-0.33,0.44c-0.17,0.33-0.26,0.68,0.1,0.95
		c0.33,0.25,0.53,0.01,0.79-0.19C88.76,118.6,89.09,118.48,89.59,118.23z M49.11,19.65c-0.62-0.12-0.92,0.1-0.94,0.68
		c0.6,0.31,1.02-0.05,1.42-0.3c0.12-0.08,0.16-0.55,0.06-0.68c-0.16-0.19-0.48-0.24-0.95-0.45C48.88,19.24,48.95,19.36,49.11,19.65z
		 M49.71,120.22c-0.08,0.08-0.17,0.16-0.25,0.23c0.08,0.19,0.15,0.54,0.23,0.54c0.5-0.01,0.84,0.16,1.15,0.6
		c0.24,0.33,0.59,0.26,0.84-0.25C51,120.96,50.35,120.59,49.71,120.22z M31.29,86.64c0.37-1.25,0.37-1.25-0.54-1.86
		C30.63,85.61,30.63,85.61,31.29,86.64z M29.02,72.39c1.03-0.41-0.11-1.62,0.74-2.14C28.41,70.51,29.47,71.75,29.02,72.39z
		 M90.18,22.64c0.06-0.09,0.13-0.18,0.19-0.27c-0.14-0.24-0.23-0.64-0.42-0.7c-0.49-0.15-0.6,0.28-0.77,0.83
		C89.58,22.55,89.88,22.59,90.18,22.64z M58.72,119.69c-0.8-0.1-1.41-0.17-2.03-0.25c0,0.13-0.01,0.2,0,0.2
		c0.58,0.17,1.17,0.35,1.76,0.5C58.5,120.15,58.59,119.92,58.72,119.69z M66.56,123c0.53,0.12,1.05,0.21,1.54-0.09
		C67.57,122.8,67.05,122.45,66.56,123z M46.62,23.08c0.68-0.27,1.15-0.59,1.23-0.88C47.4,22.43,46.83,22.22,46.62,23.08z
		 M119.58,65.74c0.2-0.11,0.43-0.19,0.43-0.24c-0.07-0.54-0.17-1.08-0.26-1.62c-0.06,0.01-0.11,0.02-0.17,0.03
		C119.58,64.48,119.58,65.06,119.58,65.74z M106.44,28.75c0.48,0.55,0.79,0.44,1.01,0.02c0.06-0.11-0.01-0.42-0.1-0.48
		C106.86,28.02,106.8,28.58,106.44,28.75z M56.83,121.64c-0.33-0.5-0.33-0.5-1.39,0.09C55.95,121.7,56.38,121.67,56.83,121.64z
		 M115.17,80.52c-0.43,0.53-0.59,0.9-0.36,1.42C115.46,81.64,115.52,81.23,115.17,80.52z M119.8,66.56
		c-0.06-0.09-0.08-0.14-0.1-0.14c-0.03,0-0.07,0.02-0.1,0.05c-0.21,0.22-0.42,0.44-0.62,0.67c-0.03,0.04,0,0.14,0.01,0.25
		c0.16,0.04,0.34,0.09,0.55,0.15C119.64,67.16,119.72,66.84,119.8,66.56z M59.92,95.94c-0.24,0.86-0.24,0.86,0.52,1.06
		C60.24,96.59,60.08,96.27,59.92,95.94z M82.88,120.45c0.6-0.03,0.66-0.3,0.52-0.63c-0.04-0.09-0.24-0.1-0.36-0.15
		C82.98,119.92,82.93,120.16,82.88,120.45z M46.48,117.67c0.03-0.09,0.07-0.17,0.1-0.26c-0.39-0.17-0.78-0.34-1.17-0.52
		c-0.03,0.07-0.06,0.14-0.09,0.21C45.71,117.3,46.1,117.49,46.48,117.67z M96.72,112.95c-0.06-0.12-0.12-0.25-0.18-0.37
		c-0.36,0.2-0.71,0.41-1.07,0.61c0.03,0.08,0.07,0.15,0.1,0.23C95.95,113.26,96.33,113.11,96.72,112.95z M59.39,121.19
		c0.05-0.08,0.11-0.15,0.16-0.23c-0.22-0.17-0.19-0.76-0.87-0.34C58.96,120.86,59.17,121.02,59.39,121.19z M51.45,21.59
		c-0.45-0.42-0.74-0.39-0.87,0.31C50.94,21.77,51.19,21.68,51.45,21.59z M103.28,105.18c0.08,0.09,0.16,0.18,0.25,0.27
		c0.24-0.28,0.48-0.56,0.72-0.85c-0.04-0.03-0.07-0.06-0.11-0.1C103.85,104.73,103.57,104.95,103.28,105.18z M87.57,116.66
		c-0.02-0.08-0.04-0.16-0.06-0.24c-0.25,0.1-0.49,0.2-0.74,0.31c-0.01,0.01,0.03,0.13,0.05,0.21
		C87.08,116.84,87.32,116.75,87.57,116.66z M119.3,68.81c0.2-0.34,0.34-0.56,0.56-0.92c-0.37,0.05-0.57,0.08-0.8,0.11
		C119.14,68.27,119.19,68.46,119.3,68.81z M31.27,82.86c-0.59,0.07-0.59,0.07-0.33,0.57C31.05,83.25,31.15,83.08,31.27,82.86z
		 M51.95,119.86c-0.04,0.11-0.09,0.22-0.13,0.33c0.21,0.07,0.42,0.14,0.64,0.2c0.01,0,0.08-0.18,0.07-0.19
		C52.34,120.08,52.14,119.97,51.95,119.86z M88.69,22.02c-0.25-0.26-0.5-0.58-0.88-0.08C88.16,21.98,88.42,22,88.69,22.02z
		 M110.51,105.79c0.26,0.05,0.42,0.08,0.58,0.11c0.02-0.19,0.03-0.38,0.08-0.86C110.85,105.41,110.72,105.56,110.51,105.79z
		 M97.31,116.32c-0.38,0.33-0.58,0.5-0.91,0.79C96.94,117.1,97.28,117.13,97.31,116.32z M101.5,113.21
		c-0.05,0.26-0.1,0.52-0.17,0.88C101.9,113.88,101.88,113.58,101.5,113.21z M29.65,44.94c0.12,0.03,0.24,0.07,0.35,0.11
		c0.05-0.24,0.11-0.49,0.16-0.73c-0.1-0.02-0.29-0.08-0.3-0.06C29.78,44.48,29.71,44.71,29.65,44.94z M50.08,21.66
		c-0.06-0.01-0.11-0.02-0.17-0.03c-0.06,0.19-0.11,0.37-0.17,0.56c0.1,0.01,0.2,0.03,0.3,0.04C50.05,22.04,50.07,21.85,50.08,21.66z
		 M76.29,121.68c-0.33,0.02-0.46-0.01-0.52,0.04c-0.08,0.07-0.1,0.21-0.26,0.59C75.87,122.03,75.99,121.92,76.29,121.68z
		 M99.55,108.94c-0.28-0.17-0.37-0.28-0.45-0.27c-0.09,0.01-0.17,0.13-0.25,0.19c0.11,0.08,0.2,0.19,0.32,0.22
		C99.25,109.11,99.36,109.02,99.55,108.94z M30.7,84.34c-0.03-0.09-0.05-0.17-0.08-0.26c-0.18,0.08-0.35,0.16-0.53,0.24
		c0.02,0.05,0.04,0.11,0.05,0.16C30.33,84.44,30.52,84.39,30.7,84.34z M76.44,120.15c-0.12-0.14-0.23-0.29-0.25-0.28
		c-0.12,0.08-0.23,0.17-0.31,0.29c-0.02,0.02,0.13,0.23,0.16,0.22C76.17,120.35,76.28,120.25,76.44,120.15z M109.83,30.76
		c-0.04,0.05-0.09,0.09-0.13,0.14c0.12,0.12,0.24,0.25,0.36,0.37c0.04-0.06,0.12-0.16,0.11-0.17
		C110.07,30.97,109.95,30.87,109.83,30.76z M88.04,115.75c0.06,0.06,0.12,0.12,0.19,0.18c0.1-0.17,0.2-0.34,0.3-0.5
		c-0.04-0.03-0.09-0.06-0.13-0.09C88.27,115.48,88.16,115.61,88.04,115.75z M110.29,101.21c0.09,0.11,0.14,0.23,0.22,0.25
		c0.06,0.02,0.15-0.1,0.23-0.16c-0.07-0.1-0.14-0.2-0.21-0.3C110.45,101.06,110.38,101.12,110.29,101.21z M52.89,122.62
		c0.06-0.02,0.12-0.03,0.18-0.05c-0.04-0.14-0.08-0.29-0.12-0.43c-0.05,0.02-0.11,0.03-0.16,0.05
		C52.82,122.33,52.86,122.48,52.89,122.62z M117.84,90.4c0.09,0.03,0.17,0.05,0.26,0.08c-0.02-0.15-0.04-0.31-0.06-0.46
		C117.98,90.15,117.91,90.28,117.84,90.4z M111.9,88.59c-0.06,0.07-0.12,0.13-0.18,0.2c0.19,0.15,0.38,0.29,0.58,0.44
		c0.05-0.06,0.1-0.13,0.14-0.19C112.26,88.89,112.08,88.74,111.9,88.59z M84.68,116.16c-0.06-0.03-0.11-0.1-0.17-0.09
		c-0.06,0-0.11,0.07-0.16,0.11c0.07,0.05,0.14,0.11,0.21,0.14C84.59,116.32,84.64,116.22,84.68,116.16z M44.38,116.7
		c0.07-0.08,0.14-0.15,0.21-0.23c-0.14-0.12-0.28-0.24-0.42-0.36c-0.07,0.08-0.15,0.16-0.22,0.24
		C44.09,116.46,44.24,116.58,44.38,116.7z"/>
	<path class="st0" d="M120,45.3c-0.02-0.56-0.27-0.97-0.78-1.2c0.22-0.83-0.63-0.97-0.91-1.52c0.09-0.05,0.17-0.12,0.26-0.14
		c0.39-0.09,0.84-0.32,1.17-0.21c0.23,0.08,0.3,0.64,0.46,0.98c0.07,0.14,0.17,0.27,0.28,0.37c0.72,0.65,1.25,1.41,1.43,2.4
		c0.03,0.15,0.1,0.31,0.2,0.43c1.34,1.51,1.7,3.45,2.16,5.34c0.22,0.93,0.42,1.86,0.6,2.8c0.12,0.61,0.33,1.18,0.05,1.86
		c-0.16,0.39,0.05,0.95,0.11,1.68c0.1,0.15,0.91,0.18,0.5,0.89c-0.42,0.02-0.84,0.04-1.37,0.06c-0.08-0.23-0.2-0.56-0.38-1.06
		c-0.12,0.52-0.2,0.9-0.33,1.49c-0.25-1.69-0.65-3.17-0.66-4.65c-0.01-1.72-0.54-3.25-0.99-4.84c-0.41-1.45-0.88-2.86-1.51-4.21
		c-0.08-0.17-0.21-0.32-0.32-0.48L120,45.3z"/>
	<path class="st0" d="M124.06,79.06c-0.2,0.17-0.4,0.33-0.59,0.48c-0.41-0.1-0.08-0.96-0.72-0.69c-0.01-0.38-0.04-0.76-0.01-1.13
		c0.02-0.31,0.09-0.62,0.16-0.93c0.15-0.69,0.22-1.42,0.47-2.07c0.35-0.89,0.83-1.72,1.29-2.63c-0.17-0.05-0.37-0.12-0.61-0.19
		c0.01-0.26,0.03-0.52,0.04-0.89c0.36,0.1,0.64,0.18,0.98,0.27c-0.06,0.49-0.08,0.97-0.19,1.42c-0.46,1.93-0.12,3.89-0.27,5.84
		c-0.07,0.98-0.01,1.98-0.15,2.95c-0.09,0.61-0.37,1.21-0.66,1.77c-0.08,0.17-0.46,0.25-0.7,0.24c-0.29-0.01-0.58-0.16-1.12-0.33
		c0.44-0.21,0.7-0.33,0.99-0.46c0.03-0.63-0.07-1.35,0.13-1.96c0.19-0.58,0.69-1.04,1.05-1.55C124.13,79.14,124.1,79.1,124.06,79.06
		z"/>
	<path class="st0" d="M34.04,27.86c-0.03,0.38-0.06,0.76-0.09,1.11c-0.81,0.77-1.63,1.56-2.46,2.35c-0.22,0.21-0.42,0.54-0.68,0.6
		c-0.71,0.15-0.69,0.6-0.53,1.22c-1.03-0.35-1.43,0.64-2.14,0.97c-0.84,0.39-1.09,1.45-1.93,1.85c-0.23,0.11-0.46,0.2-0.64,0.28
		c0.11-0.38,0.31-0.73,0.28-1.05c-0.05-0.5,0.1-0.86,0.43-1.17c0.65-0.59,1.34-1.15,1.98-1.75c0.28-0.26,0.44-0.65,0.71-0.92
		c0.74-0.74,1.51-1.46,2.28-2.17c0.14-0.13,0.36-0.27,0.5-0.25c0.93,0.19,1.48-0.47,2.1-0.98c0.05-0.04,0.15-0.03,0.22-0.05
		L34.04,27.86z"/>
	<path class="st0" d="M22.34,53.24c-0.59,0.47-1.19,0.92-0.91,1.86c0.04,0.12-0.05,0.31-0.13,0.43c-0.23,0.36-0.49,0.71-0.76,1.09
		c-0.6-0.43-0.83-1.1-0.84-1.98c0.13-0.07,0.29-0.15,0.43-0.25c0.42-0.3,0.55-0.89,0.2-1.2c-0.84-0.74-0.4-1.6-0.28-2.42
		c0.03-0.22,0.23-0.41,0.31-0.63c0.55-1.54,0.55-1.54,2.04-1.3c0.19,0.03,0.39,0.01,0.57,0.07c0.24,0.08,0.46,0.21,0.69,0.32
		c-0.14,0.2-0.29,0.4-0.41,0.61c-0.13,0.23-0.21,0.49-0.35,0.72c-0.22,0.35-0.46,0.67-0.77,1.11c0.05,0.41,0.12,1,0.19,1.59
		C22.31,53.28,22.34,53.24,22.34,53.24z"/>
	<path class="st0" d="M126.73,65.86c-0.77-0.23-1.01,0.11-1.09,0.71c-0.08,0.63-0.16,1.26-0.31,1.87c-0.05,0.2-0.33,0.34-0.5,0.5
		c-0.14-0.19-0.39-0.39-0.39-0.58c0-1.7,0.06-3.41,0.08-5.11c0-0.34-0.15-0.68-0.18-1.02c-0.04-0.45-0.2-1.06,0.01-1.33
		c0.29-0.37,0.36-0.73,0.47-1.14c0.05-0.17,0.39-0.27,0.63-0.42c0.17,1.04,0.28,1.96,0.48,2.87c0.17,0.8,0.46,1.58,0.66,2.38
		C126.67,64.96,126.67,65.36,126.73,65.86z"/>
	<path class="st0" d="M23.19,47.15c0.09-0.35,0.15-0.6,0.23-0.92c-0.89-0.11-0.7-1.07-0.68-1.53c0.05-1.08,0.83-1.77,1.85-2.08
		c-0.3,1.03-0.3,1.03-0.08,1.85c0.63-0.6,1.22-1.17,1.78-1.71c0.16,0.09,0.21,0.1,0.22,0.13c0.29,0.73-0.47,1.2-0.4,1.97
		c0.06,0.59-0.51,1.26-0.85,1.88c-0.27,0.49-0.63,0.76-1.22,0.43C23.85,47.06,23.55,47.15,23.19,47.15z M23.81,45.84
		c0.2-0.11,0.41-0.21,0.65-0.34c-0.27-0.34-0.47-0.6-0.72-0.92C23.34,45.07,23.54,45.42,23.81,45.84z"/>
	<path class="st0" d="M92.62,120.93c3.06-1.86,6.53-2.89,9.6-5.18c-0.04,0.43,0.02,0.76-0.09,0.83c-0.88,0.62-1.79,1.2-2.71,1.75
		c-0.17,0.1-0.44,0.01-0.71,0.01c-0.28,1.15-1.39,1.13-2.14,1.63c-0.5,0.34-1.08,0.51-1.57,0.95c-0.36,0.32-0.99,0.34-1.51,0.42
		c-0.29,0.04-0.61-0.08-0.91-0.12C92.6,121.12,92.61,121.03,92.62,120.93z"/>
	<path class="st0" d="M19.53,57.06c1.1,0.63,1.06,1.34-0.04,2.44c-0.47-0.08-0.93-0.16-1.46-0.26c0,0.32,0,0.54,0,0.8
		c0.29,0.12,0.61,0.24,0.91,0.36c0.12,0.44,0.23,0.84,0.36,1.33c-0.4-0.1-0.72-0.18-1.04-0.27c-0.25,0.28-0.5,0.55-0.74,0.83
		c-0.06-0.06-0.13-0.11-0.19-0.17c0.12-0.21,0.23-0.43,0.35-0.65c-0.26-0.12-0.5-0.23-0.82-0.38c0.17-0.42,0.32-0.77,0.47-1.13
		c0.08-0.21,0.24-0.43,0.21-0.63c-0.14-0.9,0.17-1.61,0.76-2.23c0.87,0.74,0.86,0.87-0.06,1.33C19.22,58.48,19.4,58.31,19.53,57.06z
		"/>
	<path class="st0" d="M73.26,126.07c0.94-0.38,1.58-0.8,2.47-0.79c0.65,0.01,1.28-0.38,1.62,0.51c0.36-0.23,0.61-0.39,0.87-0.55
		c0.1-0.06,0.29-0.17,0.33-0.14c0.43,0.43,0.65-0.02,0.97-0.19c0.36-0.19,0.82-0.61,1.16,0.14c-0.28,0.61-0.76,0.89-1.43,0.95
		c-0.99,0.08-1.97,0.06-2.97,0.46C75.41,126.83,74.38,126.61,73.26,126.07z"/>
	<path class="st0" d="M21.82,42.2c-0.43-0.17-0.8-0.32-1.32-0.54c0.78-1.36,1.45-2.59,2.96-2.91c0.1-0.53-0.55-1,0-1.47
		c0.8,0.49,0.97,1.16,0.49,1.84C23.26,40.1,22.59,41.09,21.82,42.2z"/>
	<path class="st0" d="M86.07,123.61c1.11-0.81,1.11-0.81,1.84-0.58c0.35-1.03,1.36-1.28,2.12-1.97c0.09,0.26,0.15,0.46,0.23,0.7
		c0.39,0.01,0.8-0.85,1.23,0.05c-0.29,0.34-0.43,0.88-1.08,0.79c-0.13-0.02-0.34,0.04-0.4,0.13c-0.66,1.05-1.57,0.89-2.58,0.54
		c-0.14,0.27-0.28,0.54-0.48,0.93C86.69,124.03,86.43,123.86,86.07,123.61z"/>
	<path class="st0" d="M106.14,109.95c0.3-0.12,0.63-0.21,0.91-0.38c0.32-0.2,0.6-0.48,0.93-0.76c0.06,0.62,0.04,0.61-0.33,1.33
		c-0.23,0.45-0.42,0.93-0.63,1.4c-0.01,0.03-0.06,0.07-0.09,0.07c-0.98-0.16-1.51,0.69-2.26,1.05c-0.15,0.07-0.36,0.03-0.53,0.04
		c-0.25-0.4-0.2-0.65,0.19-0.91c0.54-0.37,1.03-0.82,1.52-1.27c0.16-0.14,0.22-0.39,0.33-0.6
		C106.17,109.91,106.14,109.95,106.14,109.95z"/>
	<path class="st0" d="M91.58,17.93c-0.61,0.42-1.16,0.52-1.73,0.34c-0.86-0.28-1.81-0.24-2.59-0.83c-0.15-0.12-0.44-0.01-0.66-0.07
		c-0.23-0.06-0.45-0.18-0.63-0.41C87.91,16.75,89.76,16.93,91.58,17.93z"/>
	<path class="st0" d="M119.06,96.49c-1.04,2.03-2.27,3.91-3.62,5.71c-0.11,0.15-0.27,0.28-0.44,0.35c-0.12,0.05-0.29-0.02-0.57-0.04
		c0.81-1.11,1.51-2.16,2.3-3.14C117.51,98.41,117.94,97.15,119.06,96.49z"/>
	<path class="st0" d="M30.4,40.25c-0.82-1.68-0.82-1.68,0.16-2.49c-0.05-0.23-0.1-0.48-0.15-0.73c0.44-0.15,0.82-0.29,1.22-0.43
		c0.44,0.33,0.12,0.75-0.01,1.06c-0.19,0.47-0.55,0.85-0.77,1.31C30.67,39.37,30.55,39.82,30.4,40.25z"/>
	<path class="st0" d="M80.84,125.22c0.26-0.48,0.43-0.82,0.65-1.23c0.43,0.93,0.82,0.29,1.2,0.04c0.87-0.58,0.87-0.59,1.85,0.29
		c-0.31,0.23-0.59,0.58-0.91,0.64C82.76,125.1,81.88,125.13,80.84,125.22z"/>
	<path class="st0" d="M23.53,51.85c0.13,0.03,0.25,0.06,0.38,0.08c-0.08,0.54-0.16,1.07-0.24,1.6l0.04-0.04
		c-0.28,0.12-0.65,0.02-0.55,0.64c0.08,0.45-0.23,0.97-0.37,1.45c-0.09-0.01-0.17-0.03-0.26-0.04c-0.03-0.27-0.06-0.55-0.1-0.86
		c-0.13,0.02-0.26,0.05-0.47,0.09c0.13-0.53,0.25-1.03,0.38-1.53c0,0-0.03,0.03-0.03,0.03c0.13-0.12,0.36-0.22,0.38-0.36
		C22.79,52.38,23.11,52.09,23.53,51.85z"/>
	<path class="st0" d="M34.04,27.86l0.03,0.05c0.47-0.91,0.83-1.93,1.96-2.22c0.32,0.36,0.62,0.69,0.93,1.02
		c-0.62,0.08-1.22,0.17-1.82,0.25c-0.08,0.44-0.14,0.78-0.23,1.27C34.57,28.08,34.31,27.97,34.04,27.86z"/>
	<path class="st0" d="M27.58,42.61c-0.25-0.12-0.5-0.23-0.78-0.36c0.18-0.85,0.83-1.25,1.54-1.64
		C28.53,41.45,28.67,42.23,27.58,42.61z"/>
	<path class="st0" d="M125.98,76.85c-0.55-1.1-0.39-2.49,0.37-3.27C126.56,74.76,126.03,75.77,125.98,76.85z"/>
	<path class="st0" d="M60.33,124.42c0.21-0.29,0.43-0.6,0.67-0.93c0.32,0.05,0.65,0.11,1.11,0.19c-0.19,0.48-0.36,0.88-0.51,1.25
		C61.12,124.73,60.75,124.59,60.33,124.42z"/>
	<path class="st0" d="M109.96,111.81c-0.47,1.01-1.53,1.44-2.05,2.41c-0.11-0.11-0.22-0.21-0.33-0.32c0.7-0.77,1.4-1.53,2.1-2.3
		C109.78,111.66,109.87,111.74,109.96,111.81z"/>
	<path class="st0" d="M68.24,15.25c-0.78-0.03-1.36,0.96-2.2,0.51c-0.07-0.04-0.07-0.21-0.11-0.36
		C66.68,14.99,67.45,15.03,68.24,15.25z"/>
	<path class="st0" d="M114.58,105.27c-0.31,1.04-0.65,1.9-1.49,2.53C113.06,107.03,113.66,106,114.58,105.27z"/>
	<path class="st0" d="M126.66,66.99c0,0.87,0,1.75,0,2.62C125.92,68.7,126.54,67.82,126.66,66.99z"/>
	<path class="st0" d="M122.29,71.36c0,0.65,0,1.29,0,1.97C121.56,73,121.54,72.61,122.29,71.36z"/>
	<path class="st0" d="M20.83,43.98c-0.75-0.4-0.75-0.4-0.72-1.22C20.97,42.84,21.02,42.93,20.83,43.98z"/>
	<path class="st0" d="M122.13,65.8c0.35,1.33,0.35,1.33-0.4,1.58C121.77,66.82,121.49,66.23,122.13,65.8z"/>
	<path class="st0" d="M121.5,77.9c-0.22,0.89-0.44,1.78-0.66,2.67c-0.09-0.02-0.18-0.04-0.26-0.07c0.19-0.88,0.38-1.77,0.57-2.65
		C121.27,77.87,121.38,77.88,121.5,77.9z"/>
	<path class="st0" d="M116.61,102.31c-0.02-0.18-0.12-0.41-0.05-0.52c0.36-0.57,0.77-1.11,1.2-1.71c0.02,0.85-0.39,1.59-1.19,2.21
		L116.61,102.31z"/>
	<path class="st0" d="M121.88,75.62c-0.67-0.69-0.32-1.23,0.08-1.88C122.18,74.41,122.21,74.97,121.88,75.62z"/>
	<path class="st0" d="M122.45,68.74c0.03,0.33,0.1,0.66,0.07,0.99c-0.01,0.11-0.26,0.3-0.38,0.28c-0.13-0.02-0.33-0.26-0.31-0.37
		c0.05-0.33,0.2-0.63,0.31-0.95C122.24,68.71,122.35,68.73,122.45,68.74z"/>
	<path class="st0" d="M18.16,51.15c-0.21,0.67-0.34,1.08-0.47,1.49c-0.09-0.01-0.18-0.01-0.28-0.02c-0.04-0.22-0.13-0.45-0.11-0.67
		C17.33,51.59,17.36,51.59,18.16,51.15z"/>
	<path class="st0" d="M69.74,125.95c-0.23,0.8-0.23,0.8-1.08,0.37C68.94,125.87,69.31,125.9,69.74,125.95z"/>
	<path class="st0" d="M125.17,69.73c-0.04,0.43-0.06,0.7-0.11,1.23c-0.39-0.47-0.64-0.77-1.01-1.23
		C124.52,69.73,124.79,69.73,125.17,69.73z"/>
	<path class="st0" d="M64.39,123.54c-0.34,0.08-0.67,0.19-1.01,0.22c-0.43,0.03-0.61-0.21-0.54-0.71c0.55,0.18,1.04,0.33,1.54,0.49
		C64.39,123.54,64.39,123.54,64.39,123.54z"/>
	<path class="st0" d="M120.35,82.92c-0.2,0.41-0.41,0.81-0.71,1.41c-0.22-0.84,0.14-1.19,0.43-1.57
		C120.17,82.82,120.26,82.87,120.35,82.92z"/>
	<path class="st0" d="M96.52,19.74c0.42-0.11,0.71-0.09,0.75,0.33c0.01,0.11-0.12,0.35-0.2,0.35
		C96.68,20.44,96.47,20.24,96.52,19.74z"/>
	<path class="st0" d="M51.94,17.54c0.22-0.43,0.35-1,1.05-0.79c0.02,0.92-0.8,0.41-1.08,0.76C51.92,17.51,51.94,17.54,51.94,17.54z"
		/>
	<path class="st0" d="M17.22,56.27c-0.53,0.06-0.79,0.08-1.15,0.12c0.09-0.31,0.15-0.51,0.24-0.82
		C16.6,55.8,16.81,55.95,17.22,56.27z"/>
	<path class="st0" d="M94.51,19.17c-0.28-0.08-0.56-0.16-0.98-0.29C94.15,18.54,94.15,18.54,94.51,19.17z"/>
	<path class="st0" d="M95.82,22.6c-0.23-0.11-0.47-0.22-0.71-0.33c0.09-0.19,0.11-0.29,0.16-0.31C95.73,21.73,95.89,22,95.82,22.6z"
		/>
	<path class="st0" d="M58.36,16.25c-0.07-0.49-0.11-0.73-0.15-1.03C58.95,15.33,58.92,15.6,58.36,16.25z"/>
	<path class="st0" d="M19.15,55.75c-0.31,0.08-0.49,0.19-0.62,0.14c-0.11-0.04-0.16-0.27-0.24-0.41c0.15-0.07,0.31-0.22,0.44-0.2
		C18.86,55.32,18.96,55.52,19.15,55.75z"/>
	<path class="st0" d="M50.16,18.32c-0.03-0.31-0.45-0.63,0.04-0.97c0.6,0.35,0.22,0.66-0.06,0.97
		C50.13,18.33,50.16,18.32,50.16,18.32z"/>
	<path class="st0" d="M119.97,45.26c0.05,0.41,0.09,0.81,0.14,1.22c-0.09,0.02-0.18,0.04-0.27,0.06c-0.11-0.35-0.21-0.7-0.32-1.07
		c0.21-0.07,0.35-0.12,0.49-0.17C120,45.3,119.97,45.26,119.97,45.26z"/>
	<path class="st0" d="M120.26,94.11c0.16-0.06,0.33-0.12,0.6-0.23c-0.06,0.19-0.09,0.34-0.16,0.47c-0.08,0.15-0.2,0.28-0.47,0.65
		c0.04-0.5,0.05-0.72,0.07-0.93C120.29,94.07,120.26,94.11,120.26,94.11z"/>
	<path class="st0" d="M112.81,108.02c-0.25,0.49-0.41,0.81-0.59,1.16C112.22,108.56,112.22,108.56,112.81,108.02z"/>
	<path class="st0" d="M66.15,126.03c0.26,0.02,0.52,0.05,0.79,0.07c0,0.06,0,0.13,0,0.19c-0.26,0-0.53,0-0.79,0
		C66.15,126.2,66.15,126.11,66.15,126.03z"/>
	<path class="st0" d="M68.31,126.34c-0.25,0.06-0.38,0.12-0.51,0.12c-0.05,0-0.09-0.16-0.13-0.25c0.1-0.04,0.2-0.12,0.3-0.11
		C68.06,126.1,68.13,126.2,68.31,126.34z"/>
	<path class="st0" d="M15.23,66.09c0.03-0.2,0.05-0.4,0.08-0.61c0.06,0.01,0.12,0.02,0.18,0.03c-0.02,0.2-0.05,0.4-0.07,0.61
		C15.35,66.1,15.29,66.1,15.23,66.09z"/>
	<path class="st0" d="M84.45,17.66c-0.2-0.05-0.4-0.1-0.59-0.15c0.02-0.07,0.03-0.14,0.05-0.21c0.2,0.05,0.4,0.09,0.6,0.14
		C84.48,17.52,84.47,17.59,84.45,17.66z"/>
	<path class="st0" d="M116.58,102.29c-0.16,0.3-0.31,0.59-0.47,0.89c-0.08-0.46,0.08-0.76,0.5-0.86
		C116.61,102.31,116.58,102.29,116.58,102.29z"/>
	<path class="st0" d="M65.66,124.73c0.12,0.14,0.24,0.27,0.48,0.54c-0.26-0.05-0.39-0.04-0.48-0.11c-0.08-0.05-0.1-0.19-0.15-0.28
		C65.56,124.83,65.61,124.78,65.66,124.73z"/>
	<path class="st0" d="M111.14,110.09c0.12-0.1,0.25-0.2,0.37-0.31c0.04,0.04,0.07,0.07,0.11,0.11c-0.09,0.13-0.19,0.27-0.28,0.4
		C111.27,110.23,111.21,110.16,111.14,110.09z"/>
	<path class="st0" d="M82.28,118.32c-0.16,0.11-0.3,0.22-0.32,0.2c-0.12-0.11-0.23-0.25-0.32-0.4c-0.01-0.01,0.18-0.2,0.21-0.19
		C81.99,118.03,82.11,118.16,82.28,118.32z"/>
	<path class="st0" d="M65.71,120.32c-0.14,0.18-0.22,0.28-0.31,0.39c-0.09-0.09-0.25-0.17-0.26-0.26c-0.01-0.11,0.11-0.23,0.17-0.35
		C65.42,120.15,65.53,120.22,65.71,120.32z"/>
</g>
<g>
	<path class="st1" d="M50.7,39.47l-1.23,0.95l-2.71-3.53l1.99,4.09l-0.95,0.73l-3.54-2.9l2.71,3.54l-1.08,0.83l-4.84-6.3l1.78-1.37
		l3.14,2.78l-1.96-3.69l1.85-1.42L50.7,39.47z"/>
	<path class="st1" d="M51.98,29.78l0.49,3.36l0.25,1.68l1.47,2.77l-1.54,0.82L51.2,35.7c-0.16-0.23-0.55-0.65-1.17-1.24
		c-0.53-0.5-1.32-1.29-2.4-2.37l1.47-0.78l2.01,2.12l-0.53-2.9L51.98,29.78z"/>
	<path class="st1" d="M59.86,32.26l0.79,2.81l-1.64,0.46l-2.14-7.65l1.76-0.49c0.7-0.2,1.25-0.25,1.63-0.17s0.66,0.4,0.81,0.95
		l0.59,2.12c0.14,0.5,0.1,0.89-0.12,1.18C61.34,31.75,60.78,32.02,59.86,32.26z M60,30.6l-0.51-1.83c-0.08-0.27-0.3-0.35-0.67-0.25
		l0.74,2.64C59.93,31.06,60.08,30.87,60,30.6z"/>
	<path class="st1" d="M63.53,32.93l-0.72-5.06c-0.14-1.02,0.44-1.62,1.77-1.81c1.3-0.18,2.03,0.23,2.17,1.24l0.72,5.06
		c0.06,0.46-0.07,0.83-0.4,1.13c-0.33,0.3-0.78,0.49-1.37,0.57C64.38,34.26,63.66,33.88,63.53,32.93z M65.79,32.7l-0.76-5.36
		c-0.02-0.16-0.13-0.22-0.31-0.2c-0.19,0.03-0.28,0.12-0.26,0.28l0.76,5.36c0.02,0.16,0.13,0.22,0.32,0.19
		C65.73,32.95,65.81,32.85,65.79,32.7z"/>
	<path class="st1" d="M72.91,33.6l-1.74,0.03c-0.19-0.22-0.3-0.86-0.31-1.91v-0.01l0-0.48c0-0.66,0-1,0-1.01
		c0-0.27-0.19-0.4-0.55-0.4l0.06,3.81l-1.74,0.03l-0.13-7.94l2.15-0.03c0.49-0.01,0.92,0.1,1.29,0.32c0.37,0.22,0.55,0.57,0.56,1.06
		l0.02,0.95c0.01,0.62-0.34,1.04-1.06,1.27c0.73,0.16,1.1,0.59,1.11,1.29l-0.01,0.87C72.57,32.72,72.69,33.44,72.91,33.6z
		 M70.82,28.43l-0.02-1.31c0-0.28-0.19-0.41-0.54-0.41l0.03,2.15C70.65,28.86,70.82,28.71,70.82,28.43z"/>
	<path class="st1" d="M78.19,27.28l-0.97-0.12l-0.84,6.85l-1.73-0.21l0.84-6.85l-0.97-0.12l0.13-1.03l3.67,0.45L78.19,27.28z"/>
	<path class="st1" d="M83.09,28.37l-1.48-0.36l-0.51,2.09l1.32,0.32l-0.23,0.94l-1.32-0.32l-0.9,3.7l-1.69-0.41l1.88-7.71l3.17,0.77
		L83.09,28.37z"/>
	<path class="st1" d="M82.78,34.06l1.81-4.78c0.37-0.96,1.17-1.21,2.42-0.73c1.23,0.47,1.66,1.18,1.3,2.13l-1.81,4.78
		c-0.16,0.43-0.46,0.7-0.89,0.8c-0.43,0.1-0.92,0.05-1.47-0.16C82.89,35.64,82.44,34.96,82.78,34.06z M84.87,34.95l1.92-5.06
		c0.06-0.15,0-0.26-0.18-0.32c-0.18-0.07-0.3-0.03-0.36,0.12l-1.92,5.06c-0.06,0.15,0.01,0.26,0.19,0.33
		C84.7,35.14,84.82,35.1,84.87,34.95z"/>
	<path class="st1" d="M89.81,38.71l-2.89-1.53l3.7-7.02l1.54,0.81l-3.23,6.12l1.35,0.71L89.81,38.71z"/>
	<path class="st1" d="M92.04,40.16l-1.46-0.95l4.35-6.64l1.46,0.95L92.04,40.16z"/>
	<path class="st1" d="M93.71,39.63l3.22-3.97c0.65-0.8,1.49-0.78,2.53,0.06c1.02,0.83,1.21,1.64,0.57,2.43l-3.22,3.97
		c-0.29,0.36-0.66,0.52-1.1,0.48c-0.44-0.04-0.89-0.24-1.35-0.61C93.33,41.16,93.11,40.37,93.71,39.63z M95.42,41.13l3.41-4.2
		c0.1-0.12,0.08-0.24-0.07-0.36c-0.15-0.12-0.28-0.12-0.38,0l-3.41,4.2c-0.1,0.12-0.07,0.25,0.08,0.37
		C95.2,41.26,95.32,41.25,95.42,41.13z"/>
</g>
<g>
	<path class="st1" d="M91.2,102.27l1.23-0.95l2.71,3.53l-1.99-4.09l0.95-0.73l3.54,2.9l-2.71-3.54l1.08-0.83l4.84,6.3l-1.78,1.37
		l-3.14-2.78l1.96,3.69l-1.85,1.42L91.2,102.27z"/>
	<path class="st1" d="M89.92,111.95l-0.49-3.36l-0.25-1.68l-1.47-2.77l1.54-0.82l1.44,2.72c0.16,0.23,0.55,0.65,1.17,1.24
		c0.53,0.5,1.32,1.29,2.4,2.37l-1.47,0.78l-2.01-2.12l0.53,2.9L89.92,111.95z"/>
	<path class="st1" d="M82.04,109.48l-0.79-2.82l1.64-0.46l2.14,7.65l-1.76,0.49c-0.7,0.2-1.25,0.25-1.63,0.17
		c-0.39-0.08-0.66-0.4-0.81-0.95l-0.59-2.12c-0.14-0.5-0.1-0.89,0.12-1.18C80.56,109.98,81.13,109.72,82.04,109.48z M81.9,111.13
		l0.51,1.83c0.08,0.27,0.3,0.35,0.67,0.25l-0.74-2.64C81.97,110.67,81.82,110.86,81.9,111.13z"/>
	<path class="st1" d="M78.37,108.8l0.72,5.06c0.14,1.02-0.44,1.62-1.76,1.81c-1.3,0.18-2.03-0.23-2.17-1.24l-0.72-5.06
		c-0.06-0.46,0.07-0.83,0.4-1.13c0.33-0.3,0.78-0.49,1.37-0.57C77.52,107.48,78.24,107.86,78.37,108.8z M76.11,109.04l0.76,5.36
		c0.02,0.16,0.13,0.22,0.31,0.2c0.19-0.03,0.28-0.12,0.26-0.28l-0.76-5.36c-0.02-0.16-0.13-0.22-0.32-0.19
		C76.17,108.79,76.09,108.88,76.11,109.04z"/>
	<path class="st1" d="M68.99,108.13l1.74-0.03c0.19,0.22,0.3,0.86,0.31,1.91v0.01l0,0.48c0,0.66,0,1,0,1.01
		c0,0.27,0.19,0.4,0.55,0.4l-0.06-3.81l1.74-0.03l0.13,7.94l-2.15,0.03c-0.49,0.01-0.92-0.1-1.29-0.32
		c-0.37-0.22-0.55-0.57-0.56-1.06l-0.02-0.95c-0.01-0.62,0.34-1.04,1.06-1.27c-0.73-0.16-1.1-0.59-1.11-1.29l0.01-0.87
		C69.33,109.01,69.21,108.29,68.99,108.13z M71.08,113.3l0.02,1.31c0,0.28,0.19,0.41,0.54,0.41l-0.03-2.15
		C71.25,112.88,71.08,113.02,71.08,113.3z"/>
	<path class="st1" d="M63.71,114.45l0.97,0.12l0.84-6.85l1.73,0.21l-0.84,6.85l0.97,0.12l-0.13,1.03l-3.67-0.45L63.71,114.45z"/>
	<path class="st1" d="M58.81,113.37l1.48,0.36l0.51-2.09l-1.32-0.32l0.23-0.94l1.32,0.32l0.9-3.7l1.69,0.41l-1.88,7.71l-3.17-0.78
		L58.81,113.37z"/>
	<path class="st1" d="M59.13,107.67l-1.81,4.78c-0.37,0.96-1.17,1.21-2.42,0.73c-1.23-0.47-1.66-1.18-1.3-2.13l1.81-4.78
		c0.16-0.43,0.46-0.7,0.89-0.8c0.43-0.1,0.92-0.05,1.47,0.16C59.01,106.1,59.46,106.78,59.13,107.67z M57.03,106.78l-1.92,5.06
		c-0.06,0.15,0,0.26,0.18,0.32c0.18,0.07,0.3,0.03,0.36-0.12l1.92-5.06c0.06-0.15-0.01-0.26-0.19-0.33
		C57.2,106.59,57.08,106.63,57.03,106.78z"/>
	<path class="st1" d="M52.09,103.03l2.89,1.53l-3.7,7.02l-1.54-0.81l3.23-6.12l-1.35-0.71L52.09,103.03z"/>
	<path class="st1" d="M49.86,101.57l1.46,0.95l-4.35,6.64l-1.46-0.95L49.86,101.57z"/>
	<path class="st1" d="M48.19,102.1l-3.22,3.97c-0.65,0.8-1.49,0.78-2.53-0.06c-1.02-0.83-1.21-1.64-0.57-2.43l3.22-3.97
		c0.29-0.36,0.66-0.52,1.1-0.48c0.44,0.04,0.89,0.24,1.35,0.61C48.58,100.57,48.79,101.36,48.19,102.1z M46.48,100.6l-3.41,4.2
		c-0.1,0.12-0.08,0.24,0.07,0.36c0.15,0.12,0.28,0.12,0.38,0l3.41-4.2c0.1-0.12,0.07-0.25-0.08-0.37
		C46.7,100.48,46.58,100.48,46.48,100.6z"/>
</g>
<g>
	<path class="st1" d="M102.35,50.62l-0.95-1.23l3.54-2.71l-4.09,1.99l-0.73-0.95l2.9-3.54l-3.54,2.71l-0.83-1.08l6.3-4.84l1.37,1.78
		l-2.78,3.14l3.69-1.96l1.42,1.85L102.35,50.62z"/>
	<path class="st1" d="M112.03,51.89l-3.36,0.49l-1.68,0.25l-2.77,1.47l-0.82-1.54l2.72-1.44c0.23-0.16,0.65-0.55,1.24-1.17
		c0.5-0.53,1.29-1.32,2.37-2.4l0.78,1.47l-2.12,2.01l2.9-0.53L112.03,51.89z"/>
	<path class="st1" d="M109.56,59.78l-2.81,0.79l-0.46-1.64l7.65-2.14l0.49,1.76c0.2,0.7,0.25,1.25,0.17,1.63
		c-0.08,0.39-0.4,0.66-0.95,0.81l-2.12,0.59c-0.5,0.14-0.89,0.1-1.18-0.12C110.06,61.26,109.8,60.69,109.56,59.78z M111.22,59.92
		l1.83-0.51c0.27-0.08,0.35-0.3,0.25-0.67l-2.64,0.74C110.76,59.84,110.95,59.99,111.22,59.92z"/>
	<path class="st1" d="M108.88,63.44l5.06-0.72c1.02-0.14,1.62,0.44,1.81,1.77c0.19,1.3-0.23,2.03-1.24,2.17l-5.06,0.72
		c-0.46,0.06-0.83-0.07-1.13-0.4c-0.3-0.33-0.49-0.78-0.57-1.37C107.56,64.3,107.94,63.58,108.88,63.44z M109.12,65.71l5.36-0.76
		c0.16-0.02,0.22-0.13,0.2-0.31c-0.03-0.19-0.12-0.28-0.28-0.26l-5.36,0.76c-0.16,0.02-0.22,0.13-0.2,0.32
		C108.87,65.65,108.96,65.73,109.12,65.71z"/>
	<path class="st1" d="M108.21,72.82l-0.03-1.74c0.22-0.19,0.86-0.3,1.91-0.31h0.01l0.48,0c0.66,0,1,0,1.01,0
		c0.27,0,0.4-0.19,0.39-0.55l-3.81,0.06l-0.03-1.74l7.94-0.13l0.04,2.15c0.01,0.49-0.1,0.92-0.32,1.29
		c-0.22,0.37-0.57,0.55-1.06,0.56l-0.95,0.02c-0.62,0.01-1.04-0.34-1.27-1.06c-0.16,0.73-0.59,1.1-1.29,1.11l-0.87-0.01
		C109.1,72.48,108.38,72.6,108.21,72.82z M113.38,70.73l1.31-0.02c0.28,0,0.41-0.19,0.41-0.54l-2.15,0.03
		C112.96,70.56,113.1,70.74,113.38,70.73z"/>
	<path class="st1" d="M114.54,78.1l0.12-0.97l-6.85-0.84l0.21-1.73l6.85,0.84l0.12-0.97l1.03,0.13l-0.45,3.67L114.54,78.1z"/>
	<path class="st1" d="M113.45,83l0.36-1.48l-2.09-0.51l-0.32,1.32l-0.94-0.23l0.32-1.32l-3.7-0.9l0.41-1.69l7.71,1.88l-0.77,3.17
		L113.45,83z"/>
	<path class="st1" d="M107.75,82.69l4.78,1.81c0.96,0.37,1.21,1.17,0.73,2.42c-0.47,1.23-1.18,1.66-2.13,1.3l-4.78-1.81
		c-0.43-0.16-0.7-0.46-0.8-0.89c-0.1-0.43-0.05-0.92,0.16-1.47C106.18,82.8,106.86,82.35,107.75,82.69z M106.87,84.79l5.06,1.92
		c0.15,0.06,0.26,0,0.32-0.18c0.07-0.18,0.03-0.3-0.12-0.36l-5.06-1.92c-0.15-0.06-0.26,0.01-0.33,0.19
		C106.68,84.62,106.72,84.73,106.87,84.79z"/>
	<path class="st1" d="M103.11,89.72l1.53-2.89l7.02,3.7l-0.81,1.54l-6.12-3.23l-0.71,1.35L103.11,89.72z"/>
	<path class="st1" d="M101.66,91.95l0.96-1.46l6.64,4.35l-0.96,1.46L101.66,91.95z"/>
	<path class="st1" d="M102.19,93.63l3.97,3.22c0.8,0.65,0.78,1.49-0.06,2.53c-0.83,1.02-1.64,1.21-2.43,0.57l-3.97-3.22
		c-0.36-0.29-0.52-0.66-0.48-1.1c0.04-0.44,0.24-0.89,0.61-1.35C100.66,93.24,101.45,93.03,102.19,93.63z M100.69,95.34l4.2,3.41
		c0.12,0.1,0.24,0.08,0.36-0.07c0.12-0.15,0.12-0.28,0-0.38l-4.2-3.41c-0.12-0.1-0.25-0.07-0.37,0.08
		C100.56,95.12,100.56,95.24,100.69,95.34z"/>
</g>
<g>
	<path class="st1" d="M39.55,91.12l0.95,1.23l-3.54,2.71l4.09-1.99l0.73,0.95l-2.9,3.54l3.54-2.71l0.83,1.08l-6.3,4.84l-1.37-1.78
		l2.78-3.14l-3.69,1.96l-1.42-1.85L39.55,91.12z"/>
	<path class="st1" d="M29.87,89.84l3.36-0.49l1.68-0.25l2.77-1.47l0.82,1.54l-2.72,1.44c-0.23,0.16-0.65,0.55-1.24,1.17
		c-0.5,0.53-1.29,1.33-2.37,2.4l-0.78-1.47l2.12-2.01l-2.9,0.53L29.87,89.84z"/>
	<path class="st1" d="M32.34,81.96l2.81-0.79l0.46,1.64l-7.65,2.14l-0.49-1.77c-0.2-0.7-0.25-1.24-0.17-1.63s0.4-0.66,0.95-0.81
		l2.12-0.59c0.5-0.14,0.89-0.1,1.18,0.12C31.84,80.47,32.1,81.04,32.34,81.96z M30.69,81.81l-1.83,0.51
		c-0.27,0.08-0.35,0.3-0.25,0.67l2.64-0.74C31.14,81.89,30.96,81.74,30.69,81.81z"/>
	<path class="st1" d="M33.02,78.29l-5.06,0.72c-1.02,0.14-1.62-0.45-1.81-1.77c-0.18-1.3,0.23-2.03,1.24-2.17l5.06-0.72
		c0.46-0.06,0.83,0.07,1.13,0.4c0.3,0.33,0.49,0.78,0.57,1.37C34.34,77.43,33.96,78.16,33.02,78.29z M32.78,76.02l-5.36,0.76
		c-0.16,0.02-0.22,0.13-0.2,0.31c0.03,0.19,0.12,0.28,0.28,0.26l5.36-0.76c0.16-0.02,0.22-0.13,0.19-0.32
		C33.03,76.08,32.94,76,32.78,76.02z"/>
	<path class="st1" d="M33.69,68.91l0.03,1.74c-0.22,0.19-0.86,0.3-1.91,0.31H31.8l-0.48,0c-0.66,0-1,0-1.01,0
		c-0.27,0-0.4,0.19-0.4,0.55l3.81-0.06l0.03,1.74l-7.94,0.13l-0.03-2.15c-0.01-0.49,0.1-0.92,0.32-1.29
		c0.22-0.37,0.57-0.55,1.06-0.56l0.95-0.02c0.62-0.01,1.04,0.34,1.27,1.06c0.16-0.73,0.59-1.1,1.29-1.11l0.87,0.01
		C32.81,69.25,33.52,69.13,33.69,68.91z M28.52,71l-1.31,0.02c-0.28,0-0.41,0.19-0.41,0.54l2.15-0.03
		C28.94,71.17,28.8,70.99,28.52,71z"/>
	<path class="st1" d="M27.36,63.63l-0.12,0.97l6.85,0.84l-0.21,1.73l-6.85-0.84l-0.12,0.97l-1.03-0.13l0.45-3.67L27.36,63.63z"/>
	<path class="st1" d="M28.45,58.73l-0.36,1.48l2.09,0.51l0.32-1.32l0.94,0.23l-0.32,1.32l3.7,0.9l-0.41,1.69l-7.71-1.88l0.77-3.17
		L28.45,58.73z"/>
	<path class="st1" d="M34.15,59.04l-4.78-1.81c-0.96-0.37-1.21-1.17-0.73-2.42c0.47-1.23,1.18-1.66,2.13-1.3l4.78,1.81
		c0.43,0.16,0.7,0.46,0.8,0.89c0.1,0.43,0.05,0.92-0.16,1.47C35.72,58.93,35.04,59.38,34.15,59.04z M35.03,56.94l-5.06-1.92
		c-0.15-0.06-0.26,0-0.32,0.18c-0.07,0.18-0.03,0.3,0.12,0.36l5.06,1.92c0.15,0.06,0.26-0.01,0.33-0.19
		C35.22,57.12,35.18,57,35.03,56.94z"/>
	<path class="st1" d="M38.79,52.01l-1.53,2.89l-7.02-3.7l0.81-1.54l6.12,3.23l0.71-1.35L38.79,52.01z"/>
	<path class="st1" d="M40.24,49.78l-0.95,1.46l-6.64-4.35l0.95-1.46L40.24,49.78z"/>
	<path class="st1" d="M39.72,48.11l-3.97-3.22c-0.8-0.65-0.78-1.49,0.06-2.53c0.83-1.02,1.64-1.21,2.43-0.57l3.97,3.22
		c0.36,0.29,0.52,0.66,0.48,1.1c-0.04,0.44-0.24,0.89-0.61,1.35C41.24,48.49,40.46,48.71,39.72,48.11z M41.21,46.39l-4.2-3.41
		c-0.12-0.1-0.24-0.08-0.36,0.07c-0.12,0.15-0.12,0.28,0,0.38l4.2,3.41c0.12,0.1,0.25,0.07,0.37-0.08
		C41.34,46.62,41.34,46.49,41.21,46.39z"/>
</g>
</svg>
