<?xml version="1.0" encoding="utf-8"?>
<!-- Generator: Adobe Illustrator 24.1.2, SVG Export Plug-In . SVG Version: 6.00 Build 0)  -->
<svg version="1.1" id="Layer_1" xmlns="http://www.w3.org/2000/svg" xmlns:xlink="http://www.w3.org/1999/xlink" x="0px" y="0px"
	 viewBox="0 0 141.73 141.73" style="enable-background:new 0 0 141.73 141.73;" xml:space="preserve">
<style type="text/css">
	.st0{fill:url(#SVGID_1_);}
	.st1{fill:url(#SVGID_2_);}
	.st2{fill:url(#SVGID_3_);}
	.st3{fill:url(#SVGID_4_);}
	.st4{fill:url(#SVGID_5_);}
	.st5{fill:url(#SVGID_6_);}
	.st6{fill:url(#SVGID_7_);}
	.st7{fill:url(#SVGID_8_);}
	.st8{fill:url(#SVGID_9_);}
	.st9{fill:url(#SVGID_10_);}
	.st10{fill:url(#SVGID_11_);}
	.st11{fill:url(#SVGID_12_);}
	.st12{fill:url(#SVGID_13_);}
	.st13{fill:url(#SVGID_14_);}
	.st14{fill:url(#SVGID_15_);}
	.st15{fill:url(#SVGID_16_);}
	.st16{fill:url(#SVGID_17_);}
	.st17{fill:url(#SVGID_18_);}
	.st18{fill:url(#SVGID_19_);}
	.st19{fill:url(#SVGID_20_);}
	.st20{fill:url(#SVGID_21_);}
	.st21{fill:url(#SVGID_22_);}
	.st22{fill:url(#SVGID_23_);}
	.st23{fill:url(#SVGID_24_);}
</style>
<g>
	<g>
		<g>
			
				<radialGradient id="SVGID_1_" cx="3447.2485" cy="2572.8789" r="50.347" gradientTransform="matrix(-5.000000e-04 0.9446 -0.0617 0 231.3344 -3185.4048)" gradientUnits="userSpaceOnUse">
				<stop  offset="0" style="stop-color:#EEEEEE"/>
				<stop  offset="0.0109" style="stop-color:#EEEEE8;stop-opacity:0.9891"/>
				<stop  offset="0.1089" style="stop-color:#F0EDB7;stop-opacity:0.8911"/>
				<stop  offset="0.2122" style="stop-color:#F2ED8C;stop-opacity:0.7878"/>
				<stop  offset="0.319" style="stop-color:#F3EC68;stop-opacity:0.681"/>
				<stop  offset="0.4303" style="stop-color:#F4EC4A;stop-opacity:0.5697"/>
				<stop  offset="0.5476" style="stop-color:#F5EB33;stop-opacity:0.4524"/>
				<stop  offset="0.6735" style="stop-color:#F6EB23;stop-opacity:0.3265"/>
				<stop  offset="0.8143" style="stop-color:#F6EB19;stop-opacity:0.1857"/>
				<stop  offset="1" style="stop-color:#F6EB16;stop-opacity:0"/>
			</radialGradient>
			<path class="st0" d="M70.84,118.42c-1.72,0-3.09-21.3-3.08-47.56c0.02-26.26,1.42-47.55,3.14-47.55c1.71,0,3.09,21.29,3.07,47.56
				C73.95,97.13,72.55,118.43,70.84,118.42z"/>
			
				<radialGradient id="SVGID_2_" cx="7366.6392" cy="848.9783" r="50.3132" gradientTransform="matrix(0 0.4182 -0.1356 0 185.9866 -3009.8628)" gradientUnits="userSpaceOnUse">
				<stop  offset="0" style="stop-color:#EEEEEE"/>
				<stop  offset="0.0109" style="stop-color:#EEEEE8;stop-opacity:0.9891"/>
				<stop  offset="0.1089" style="stop-color:#F0EDB7;stop-opacity:0.8911"/>
				<stop  offset="0.2122" style="stop-color:#F2ED8C;stop-opacity:0.7878"/>
				<stop  offset="0.319" style="stop-color:#F3EC68;stop-opacity:0.681"/>
				<stop  offset="0.4303" style="stop-color:#F4EC4A;stop-opacity:0.5697"/>
				<stop  offset="0.5476" style="stop-color:#F5EB33;stop-opacity:0.4524"/>
				<stop  offset="0.6735" style="stop-color:#F6EB23;stop-opacity:0.3265"/>
				<stop  offset="0.8143" style="stop-color:#F6EB19;stop-opacity:0.1857"/>
				<stop  offset="1" style="stop-color:#F6EB16;stop-opacity:0"/>
			</radialGradient>
			<path class="st1" d="M70.87,91.92c-3.77,0-6.83-9.43-6.82-21.05c0-11.63,3.05-21.06,6.82-21.06c3.76,0,6.81,9.42,6.82,21.05
				C77.68,82.5,74.63,91.92,70.87,91.92z"/>
		</g>
		<g>
			
				<radialGradient id="SVGID_3_" cx="3447.2485" cy="2572.8789" r="50.347" gradientTransform="matrix(-5.000000e-04 0.9446 -0.0617 0 231.3344 -3185.4048)" gradientUnits="userSpaceOnUse">
				<stop  offset="0" style="stop-color:#EEEEEE"/>
				<stop  offset="0.0109" style="stop-color:#EEEEE8;stop-opacity:0.9891"/>
				<stop  offset="0.1089" style="stop-color:#F0EDB7;stop-opacity:0.8911"/>
				<stop  offset="0.2122" style="stop-color:#F2ED8C;stop-opacity:0.7878"/>
				<stop  offset="0.319" style="stop-color:#F3EC68;stop-opacity:0.681"/>
				<stop  offset="0.4303" style="stop-color:#F4EC4A;stop-opacity:0.5697"/>
				<stop  offset="0.5476" style="stop-color:#F5EB33;stop-opacity:0.4524"/>
				<stop  offset="0.6735" style="stop-color:#F6EB23;stop-opacity:0.3265"/>
				<stop  offset="0.8143" style="stop-color:#F6EB19;stop-opacity:0.1857"/>
				<stop  offset="1" style="stop-color:#F6EB16;stop-opacity:0"/>
			</radialGradient>
			<path class="st2" d="M70.84,118.42c-1.72,0-3.09-21.3-3.08-47.56c0.02-26.26,1.42-47.55,3.14-47.55c1.71,0,3.09,21.29,3.07,47.56
				C73.95,97.13,72.55,118.43,70.84,118.42z"/>
			
				<radialGradient id="SVGID_4_" cx="7366.6504" cy="636.6356" r="50.3349" gradientTransform="matrix(0 0.4182 -0.1597 0 172.5368 -3009.8677)" gradientUnits="userSpaceOnUse">
				<stop  offset="0" style="stop-color:#EEEEEE"/>
				<stop  offset="0.0109" style="stop-color:#EEEEE8;stop-opacity:0.9891"/>
				<stop  offset="0.1089" style="stop-color:#F0EDB7;stop-opacity:0.8911"/>
				<stop  offset="0.2122" style="stop-color:#F2ED8C;stop-opacity:0.7878"/>
				<stop  offset="0.319" style="stop-color:#F3EC68;stop-opacity:0.681"/>
				<stop  offset="0.4303" style="stop-color:#F4EC4A;stop-opacity:0.5697"/>
				<stop  offset="0.5476" style="stop-color:#F5EB33;stop-opacity:0.4524"/>
				<stop  offset="0.6735" style="stop-color:#F6EB23;stop-opacity:0.3265"/>
				<stop  offset="0.8143" style="stop-color:#F6EB19;stop-opacity:0.1857"/>
				<stop  offset="1" style="stop-color:#F6EB16;stop-opacity:0"/>
			</radialGradient>
			<path class="st3" d="M70.87,91.92c-4.44,0-8.04-9.42-8.04-21.05c0-11.63,3.6-21.06,8.04-21.06c4.43,0,8.03,9.42,8.04,21.05
				C78.9,82.49,75.31,91.92,70.87,91.92z"/>
		</g>
		<g>
			
				<radialGradient id="SVGID_5_" cx="540.5793" cy="-48235.7734" r="50.3504" gradientTransform="matrix(-0.9446 -5.000000e-04 0 -0.0617 581.4974 -2905.0107)" gradientUnits="userSpaceOnUse">
				<stop  offset="0" style="stop-color:#EEEEEE"/>
				<stop  offset="0.0109" style="stop-color:#EEEEE8;stop-opacity:0.9891"/>
				<stop  offset="0.1089" style="stop-color:#F0EDB7;stop-opacity:0.8911"/>
				<stop  offset="0.2122" style="stop-color:#F2ED8C;stop-opacity:0.7878"/>
				<stop  offset="0.319" style="stop-color:#F3EC68;stop-opacity:0.681"/>
				<stop  offset="0.4303" style="stop-color:#F4EC4A;stop-opacity:0.5697"/>
				<stop  offset="0.5476" style="stop-color:#F5EB33;stop-opacity:0.4524"/>
				<stop  offset="0.6735" style="stop-color:#F6EB23;stop-opacity:0.3265"/>
				<stop  offset="0.8143" style="stop-color:#F6EB19;stop-opacity:0.1857"/>
				<stop  offset="1" style="stop-color:#F6EB16;stop-opacity:0"/>
			</radialGradient>
			<path class="st4" d="M23.31,70.83c0-1.72,21.29-3.09,47.56-3.08c26.26,0.01,47.55,1.42,47.55,3.14c0,1.71-21.29,3.09-47.56,3.08
				C44.6,73.96,23.31,72.55,23.31,70.83z"/>
			
				<radialGradient id="SVGID_6_" cx="801.535" cy="-17218.166" r="50.3441" gradientTransform="matrix(-0.4182 0 0 -0.1768 406.0676 -2973.3083)" gradientUnits="userSpaceOnUse">
				<stop  offset="0" style="stop-color:#EEEEEE"/>
				<stop  offset="0.0109" style="stop-color:#EEEEE8;stop-opacity:0.9891"/>
				<stop  offset="0.1089" style="stop-color:#F0EDB7;stop-opacity:0.8911"/>
				<stop  offset="0.2122" style="stop-color:#F2ED8C;stop-opacity:0.7878"/>
				<stop  offset="0.319" style="stop-color:#F3EC68;stop-opacity:0.681"/>
				<stop  offset="0.4303" style="stop-color:#F4EC4A;stop-opacity:0.5697"/>
				<stop  offset="0.5476" style="stop-color:#F5EB33;stop-opacity:0.4524"/>
				<stop  offset="0.6735" style="stop-color:#F6EB23;stop-opacity:0.3265"/>
				<stop  offset="0.8143" style="stop-color:#F6EB19;stop-opacity:0.1857"/>
				<stop  offset="1" style="stop-color:#F6EB16;stop-opacity:0"/>
			</radialGradient>
			<path class="st5" d="M49.81,70.86c0-4.92,9.43-8.9,21.05-8.9c11.63,0,21.06,3.98,21.06,8.9c0,4.91-9.43,8.9-21.06,8.9
				C59.24,79.77,49.81,75.78,49.81,70.86z"/>
		</g>
	</g>
	<g>
		<g>
			
				<radialGradient id="SVGID_7_" cx="5316.2329" cy="50826.8203" r="50.3028" gradientTransform="matrix(-2.000000e-04 0.4235 -0.0277 0 1461.0018 -2170.0525)" gradientUnits="userSpaceOnUse">
				<stop  offset="0" style="stop-color:#EEEEEE"/>
				<stop  offset="0.0109" style="stop-color:#EEEEE8;stop-opacity:0.9891"/>
				<stop  offset="0.1089" style="stop-color:#F0EDB7;stop-opacity:0.8911"/>
				<stop  offset="0.2122" style="stop-color:#F2ED8C;stop-opacity:0.7878"/>
				<stop  offset="0.319" style="stop-color:#F3EC68;stop-opacity:0.681"/>
				<stop  offset="0.4303" style="stop-color:#F4EC4A;stop-opacity:0.5697"/>
				<stop  offset="0.5476" style="stop-color:#F5EB33;stop-opacity:0.4524"/>
				<stop  offset="0.6735" style="stop-color:#F6EB23;stop-opacity:0.3265"/>
				<stop  offset="0.8143" style="stop-color:#F6EB19;stop-opacity:0.1857"/>
				<stop  offset="1" style="stop-color:#F6EB16;stop-opacity:0"/>
			</radialGradient>
			<path class="st6" d="M52.02,102.69c-0.77,0-1.39-9.55-1.38-21.33c0.01-11.78,0.64-21.32,1.4-21.32c0.77,0,1.39,9.55,1.38,21.32
				C53.42,93.15,52.79,102.7,52.02,102.69z"/>
			
				<radialGradient id="SVGID_8_" cx="11586.9248" cy="22840.7754" r="50.3218" gradientTransform="matrix(0 0.1875 -0.0608 0 1440.7542 -2091.1768)" gradientUnits="userSpaceOnUse">
				<stop  offset="0" style="stop-color:#EEEEEE"/>
				<stop  offset="0.0109" style="stop-color:#EEEEE8;stop-opacity:0.9891"/>
				<stop  offset="0.1089" style="stop-color:#F0EDB7;stop-opacity:0.8911"/>
				<stop  offset="0.2122" style="stop-color:#F2ED8C;stop-opacity:0.7878"/>
				<stop  offset="0.319" style="stop-color:#F3EC68;stop-opacity:0.681"/>
				<stop  offset="0.4303" style="stop-color:#F4EC4A;stop-opacity:0.5697"/>
				<stop  offset="0.5476" style="stop-color:#F5EB33;stop-opacity:0.4524"/>
				<stop  offset="0.6735" style="stop-color:#F6EB23;stop-opacity:0.3265"/>
				<stop  offset="0.8143" style="stop-color:#F6EB19;stop-opacity:0.1857"/>
				<stop  offset="1" style="stop-color:#F6EB16;stop-opacity:0"/>
			</radialGradient>
			<path class="st7" d="M52.04,90.81c-1.69,0-3.06-4.23-3.06-9.44c0-5.21,1.37-9.44,3.06-9.44c1.69,0,3.06,4.23,3.06,9.44
				C55.09,86.59,53.73,90.81,52.04,90.81z"/>
		</g>
		<g>
			
				<radialGradient id="SVGID_9_" cx="5316.2329" cy="50826.8203" r="50.3028" gradientTransform="matrix(-2.000000e-04 0.4235 -0.0277 0 1461.0018 -2170.0525)" gradientUnits="userSpaceOnUse">
				<stop  offset="0" style="stop-color:#EEEEEE"/>
				<stop  offset="0.0109" style="stop-color:#EEEEE8;stop-opacity:0.9891"/>
				<stop  offset="0.1089" style="stop-color:#F0EDB7;stop-opacity:0.8911"/>
				<stop  offset="0.2122" style="stop-color:#F2ED8C;stop-opacity:0.7878"/>
				<stop  offset="0.319" style="stop-color:#F3EC68;stop-opacity:0.681"/>
				<stop  offset="0.4303" style="stop-color:#F4EC4A;stop-opacity:0.5697"/>
				<stop  offset="0.5476" style="stop-color:#F5EB33;stop-opacity:0.4524"/>
				<stop  offset="0.6735" style="stop-color:#F6EB23;stop-opacity:0.3265"/>
				<stop  offset="0.8143" style="stop-color:#F6EB19;stop-opacity:0.1857"/>
				<stop  offset="1" style="stop-color:#F6EB16;stop-opacity:0"/>
			</radialGradient>
			<path class="st8" d="M52.02,102.69c-0.77,0-1.39-9.55-1.38-21.33c0.01-11.78,0.64-21.32,1.4-21.32c0.77,0,1.39,9.55,1.38,21.32
				C53.42,93.15,52.79,102.7,52.02,102.69z"/>
			
				<radialGradient id="SVGID_10_" cx="11586.9248" cy="19311.9551" r="50.3412" gradientTransform="matrix(0 0.1875 -0.0716 0 1434.7711 -2091.1768)" gradientUnits="userSpaceOnUse">
				<stop  offset="0" style="stop-color:#EEEEEE"/>
				<stop  offset="0.0109" style="stop-color:#EEEEE8;stop-opacity:0.9891"/>
				<stop  offset="0.1089" style="stop-color:#F0EDB7;stop-opacity:0.8911"/>
				<stop  offset="0.2122" style="stop-color:#F2ED8C;stop-opacity:0.7878"/>
				<stop  offset="0.319" style="stop-color:#F3EC68;stop-opacity:0.681"/>
				<stop  offset="0.4303" style="stop-color:#F4EC4A;stop-opacity:0.5697"/>
				<stop  offset="0.5476" style="stop-color:#F5EB33;stop-opacity:0.4524"/>
				<stop  offset="0.6735" style="stop-color:#F6EB23;stop-opacity:0.3265"/>
				<stop  offset="0.8143" style="stop-color:#F6EB19;stop-opacity:0.1857"/>
				<stop  offset="1" style="stop-color:#F6EB16;stop-opacity:0"/>
			</radialGradient>
			<path class="st9" d="M52.04,90.81c-1.99,0-3.6-4.23-3.6-9.44c0-5.21,1.61-9.44,3.6-9.44c1.99,0,3.6,4.23,3.6,9.44
				C55.64,86.59,54.03,90.81,52.04,90.81z"/>
		</g>
		<g>
			
				<radialGradient id="SVGID_11_" cx="3698.4609" cy="-76761.8672" r="50.3033" gradientTransform="matrix(-0.4235 -2.000000e-04 0 -0.0277 1618.3333 -2044.194)" gradientUnits="userSpaceOnUse">
				<stop  offset="0" style="stop-color:#EEEEEE"/>
				<stop  offset="0.0109" style="stop-color:#EEEEE8;stop-opacity:0.9891"/>
				<stop  offset="0.1089" style="stop-color:#F0EDB7;stop-opacity:0.8911"/>
				<stop  offset="0.2122" style="stop-color:#F2ED8C;stop-opacity:0.7878"/>
				<stop  offset="0.319" style="stop-color:#F3EC68;stop-opacity:0.681"/>
				<stop  offset="0.4303" style="stop-color:#F4EC4A;stop-opacity:0.5697"/>
				<stop  offset="0.5476" style="stop-color:#F5EB33;stop-opacity:0.4524"/>
				<stop  offset="0.6735" style="stop-color:#F6EB23;stop-opacity:0.3265"/>
				<stop  offset="0.8143" style="stop-color:#F6EB19;stop-opacity:0.1857"/>
				<stop  offset="1" style="stop-color:#F6EB16;stop-opacity:0"/>
			</radialGradient>
			<path class="st10" d="M30.71,81.36c0-0.77,9.55-1.39,21.33-1.38c11.77,0.01,21.32,0.64,21.32,1.41c0,0.77-9.55,1.38-21.32,1.38
				C40.26,82.76,30.71,82.13,30.71,81.36z"/>
			
				<radialGradient id="SVGID_12_" cx="7933.1777" cy="-27192.0117" r="50.3333" gradientTransform="matrix(-0.1875 0 0 -0.0793 1539.5059 -2074.9561)" gradientUnits="userSpaceOnUse">
				<stop  offset="0" style="stop-color:#EEEEEE"/>
				<stop  offset="0.0109" style="stop-color:#EEEEE8;stop-opacity:0.9891"/>
				<stop  offset="0.1089" style="stop-color:#F0EDB7;stop-opacity:0.8911"/>
				<stop  offset="0.2122" style="stop-color:#F2ED8C;stop-opacity:0.7878"/>
				<stop  offset="0.319" style="stop-color:#F3EC68;stop-opacity:0.681"/>
				<stop  offset="0.4303" style="stop-color:#F4EC4A;stop-opacity:0.5697"/>
				<stop  offset="0.5476" style="stop-color:#F5EB33;stop-opacity:0.4524"/>
				<stop  offset="0.6735" style="stop-color:#F6EB23;stop-opacity:0.3265"/>
				<stop  offset="0.8143" style="stop-color:#F6EB19;stop-opacity:0.1857"/>
				<stop  offset="1" style="stop-color:#F6EB16;stop-opacity:0"/>
			</radialGradient>
			<path class="st11" d="M42.59,81.37c0-2.2,4.23-3.99,9.44-3.99c5.21,0,9.44,1.79,9.44,3.99c0,2.2-4.22,3.99-9.44,3.99
				C46.82,85.36,42.59,83.57,42.59,81.37z"/>
		</g>
	</g>
	<g>
		<g>
			
				<radialGradient id="SVGID_13_" cx="7227.5015" cy="100755.5781" r="42.8606" gradientTransform="matrix(-1.000000e-04 0.267 -0.0174 0 1845.7877 -1866.9353)" gradientUnits="userSpaceOnUse">
				<stop  offset="0" style="stop-color:#EEEEEE"/>
				<stop  offset="0.0109" style="stop-color:#EEEEE8;stop-opacity:0.9891"/>
				<stop  offset="0.1089" style="stop-color:#F0EDB7;stop-opacity:0.8911"/>
				<stop  offset="0.2122" style="stop-color:#F2ED8C;stop-opacity:0.7878"/>
				<stop  offset="0.319" style="stop-color:#F3EC68;stop-opacity:0.681"/>
				<stop  offset="0.4303" style="stop-color:#F4EC4A;stop-opacity:0.5697"/>
				<stop  offset="0.5476" style="stop-color:#F5EB33;stop-opacity:0.4524"/>
				<stop  offset="0.6735" style="stop-color:#F6EB23;stop-opacity:0.3265"/>
				<stop  offset="0.8143" style="stop-color:#F6EB19;stop-opacity:0.1857"/>
				<stop  offset="1" style="stop-color:#F6EB16;stop-opacity:0"/>
			</radialGradient>
			<path class="st12" d="M91.91,74.23c-0.41,0-0.74-5.12-0.74-11.42c0-6.31,0.34-11.42,0.75-11.42c0.41,0,0.74,5.11,0.74,11.42
				C92.66,69.12,92.32,74.23,91.91,74.23z"/>
			
				<radialGradient id="SVGID_14_" cx="15909.2979" cy="45446.6602" r="42.7827" gradientTransform="matrix(0 0.1182 -0.0383 0 1832.5245 -1817.6725)" gradientUnits="userSpaceOnUse">
				<stop  offset="0" style="stop-color:#EEEEEE"/>
				<stop  offset="0.0109" style="stop-color:#EEEEE8;stop-opacity:0.9891"/>
				<stop  offset="0.1089" style="stop-color:#F0EDB7;stop-opacity:0.8911"/>
				<stop  offset="0.2122" style="stop-color:#F2ED8C;stop-opacity:0.7878"/>
				<stop  offset="0.319" style="stop-color:#F3EC68;stop-opacity:0.681"/>
				<stop  offset="0.4303" style="stop-color:#F4EC4A;stop-opacity:0.5697"/>
				<stop  offset="0.5476" style="stop-color:#F5EB33;stop-opacity:0.4524"/>
				<stop  offset="0.6735" style="stop-color:#F6EB23;stop-opacity:0.3265"/>
				<stop  offset="0.8143" style="stop-color:#F6EB19;stop-opacity:0.1857"/>
				<stop  offset="1" style="stop-color:#F6EB16;stop-opacity:0"/>
			</radialGradient>
			<path class="st13" d="M91.92,67.86c-0.91,0-1.64-2.27-1.64-5.06c0-2.79,0.73-5.06,1.64-5.06c0.9,0,1.63,2.27,1.64,5.06
				C93.55,65.6,92.82,67.86,91.92,67.86z"/>
		</g>
		<g>
			
				<radialGradient id="SVGID_15_" cx="7227.5015" cy="100755.5781" r="42.8606" gradientTransform="matrix(-1.000000e-04 0.267 -0.0174 0 1845.7877 -1866.9353)" gradientUnits="userSpaceOnUse">
				<stop  offset="0" style="stop-color:#EEEEEE"/>
				<stop  offset="0.0109" style="stop-color:#EEEEE8;stop-opacity:0.9891"/>
				<stop  offset="0.1089" style="stop-color:#F0EDB7;stop-opacity:0.8911"/>
				<stop  offset="0.2122" style="stop-color:#F2ED8C;stop-opacity:0.7878"/>
				<stop  offset="0.319" style="stop-color:#F3EC68;stop-opacity:0.681"/>
				<stop  offset="0.4303" style="stop-color:#F4EC4A;stop-opacity:0.5697"/>
				<stop  offset="0.5476" style="stop-color:#F5EB33;stop-opacity:0.4524"/>
				<stop  offset="0.6735" style="stop-color:#F6EB23;stop-opacity:0.3265"/>
				<stop  offset="0.8143" style="stop-color:#F6EB19;stop-opacity:0.1857"/>
				<stop  offset="1" style="stop-color:#F6EB16;stop-opacity:0"/>
			</radialGradient>
			<path class="st14" d="M91.91,74.23c-0.41,0-0.74-5.12-0.74-11.42c0-6.31,0.34-11.42,0.75-11.42c0.41,0,0.74,5.11,0.74,11.42
				C92.66,69.12,92.32,74.23,91.91,74.23z"/>
			
				<radialGradient id="SVGID_16_" cx="15909.2979" cy="38511.9883" r="42.801" gradientTransform="matrix(0 0.1182 -0.0451 0 1828.8085 -1817.6725)" gradientUnits="userSpaceOnUse">
				<stop  offset="0" style="stop-color:#EEEEEE"/>
				<stop  offset="0.0109" style="stop-color:#EEEEE8;stop-opacity:0.9891"/>
				<stop  offset="0.1089" style="stop-color:#F0EDB7;stop-opacity:0.8911"/>
				<stop  offset="0.2122" style="stop-color:#F2ED8C;stop-opacity:0.7878"/>
				<stop  offset="0.319" style="stop-color:#F3EC68;stop-opacity:0.681"/>
				<stop  offset="0.4303" style="stop-color:#F4EC4A;stop-opacity:0.5697"/>
				<stop  offset="0.5476" style="stop-color:#F5EB33;stop-opacity:0.4524"/>
				<stop  offset="0.6735" style="stop-color:#F6EB23;stop-opacity:0.3265"/>
				<stop  offset="0.8143" style="stop-color:#F6EB19;stop-opacity:0.1857"/>
				<stop  offset="1" style="stop-color:#F6EB16;stop-opacity:0"/>
			</radialGradient>
			<path class="st15" d="M91.92,67.86c-1.07,0-1.93-2.27-1.93-5.06c0-2.79,0.86-5.06,1.93-5.06c1.06,0,1.93,2.26,1.93,5.06
				C93.85,65.6,92.98,67.86,91.92,67.86z"/>
		</g>
		<g>
			
				<radialGradient id="SVGID_17_" cx="6935.2983" cy="-106468.5" r="42.8618" gradientTransform="matrix(-0.267 -2.000000e-04 0 -0.0174 1943.6436 -1788.3588)" gradientUnits="userSpaceOnUse">
				<stop  offset="0" style="stop-color:#EEEEEE"/>
				<stop  offset="0.0109" style="stop-color:#EEEEE8;stop-opacity:0.9891"/>
				<stop  offset="0.1089" style="stop-color:#F0EDB7;stop-opacity:0.8911"/>
				<stop  offset="0.2122" style="stop-color:#F2ED8C;stop-opacity:0.7878"/>
				<stop  offset="0.319" style="stop-color:#F3EC68;stop-opacity:0.681"/>
				<stop  offset="0.4303" style="stop-color:#F4EC4A;stop-opacity:0.5697"/>
				<stop  offset="0.5476" style="stop-color:#F5EB33;stop-opacity:0.4524"/>
				<stop  offset="0.6735" style="stop-color:#F6EB23;stop-opacity:0.3265"/>
				<stop  offset="0.8143" style="stop-color:#F6EB19;stop-opacity:0.1857"/>
				<stop  offset="1" style="stop-color:#F6EB16;stop-opacity:0"/>
			</radialGradient>
			<path class="st16" d="M80.49,62.8c0-0.41,5.12-0.75,11.43-0.74c6.31,0,11.42,0.34,11.42,0.76c0,0.41-5.12,0.74-11.43,0.74
				C85.61,63.55,80.49,63.21,80.49,62.8z"/>
			
				<radialGradient id="SVGID_18_" cx="15249.5742" cy="-37412.0273" r="42.7734" gradientTransform="matrix(-0.1182 0 0 -0.05 1894.4181 -1807.7954)" gradientUnits="userSpaceOnUse">
				<stop  offset="0" style="stop-color:#EEEEEE"/>
				<stop  offset="0.0109" style="stop-color:#EEEEE8;stop-opacity:0.9891"/>
				<stop  offset="0.1089" style="stop-color:#F0EDB7;stop-opacity:0.8911"/>
				<stop  offset="0.2122" style="stop-color:#F2ED8C;stop-opacity:0.7878"/>
				<stop  offset="0.319" style="stop-color:#F3EC68;stop-opacity:0.681"/>
				<stop  offset="0.4303" style="stop-color:#F4EC4A;stop-opacity:0.5697"/>
				<stop  offset="0.5476" style="stop-color:#F5EB33;stop-opacity:0.4524"/>
				<stop  offset="0.6735" style="stop-color:#F6EB23;stop-opacity:0.3265"/>
				<stop  offset="0.8143" style="stop-color:#F6EB19;stop-opacity:0.1857"/>
				<stop  offset="1" style="stop-color:#F6EB16;stop-opacity:0"/>
			</radialGradient>
			<path class="st17" d="M86.86,62.81c0-1.18,2.26-2.14,5.06-2.14c2.79,0,5.06,0.96,5.06,2.14c0,1.18-2.26,2.14-5.06,2.14
				C89.12,64.94,86.86,63.99,86.86,62.81z"/>
		</g>
	</g>
	<g>
		<g>
			
				<radialGradient id="SVGID_19_" cx="5200.9561" cy="46424.3711" r="40.2462" gradientTransform="matrix(-2.000000e-04 0.4405 -0.0288 0 1399.5913 -2239.3689)" gradientUnits="userSpaceOnUse">
				<stop  offset="0" style="stop-color:#EEEEEE"/>
				<stop  offset="0.0109" style="stop-color:#EEEEE8;stop-opacity:0.9891"/>
				<stop  offset="0.1089" style="stop-color:#F0EDB7;stop-opacity:0.8911"/>
				<stop  offset="0.2122" style="stop-color:#F2ED8C;stop-opacity:0.7878"/>
				<stop  offset="0.319" style="stop-color:#F3EC68;stop-opacity:0.681"/>
				<stop  offset="0.4303" style="stop-color:#F4EC4A;stop-opacity:0.5697"/>
				<stop  offset="0.5476" style="stop-color:#F5EB33;stop-opacity:0.4524"/>
				<stop  offset="0.6735" style="stop-color:#F6EB23;stop-opacity:0.3265"/>
				<stop  offset="0.8143" style="stop-color:#F6EB19;stop-opacity:0.1857"/>
				<stop  offset="1" style="stop-color:#F6EB16;stop-opacity:0"/>
			</radialGradient>
			<path class="st18" d="M61.52,69.39c-0.64,0-1.16-7.94-1.15-17.74c0-9.8,0.53-17.74,1.17-17.74c0.64,0,1.15,7.94,1.15,17.74
				C62.68,61.45,62.16,69.4,61.52,69.39z"/>
			
				<radialGradient id="SVGID_20_" cx="11329.5039" cy="20841.6309" r="40.2752" gradientTransform="matrix(0 0.195 -0.0632 0 1378.7183 -2157.6011)" gradientUnits="userSpaceOnUse">
				<stop  offset="0" style="stop-color:#EEEEEE"/>
				<stop  offset="0.0109" style="stop-color:#EEEEE8;stop-opacity:0.9891"/>
				<stop  offset="0.1089" style="stop-color:#F0EDB7;stop-opacity:0.8911"/>
				<stop  offset="0.2122" style="stop-color:#F2ED8C;stop-opacity:0.7878"/>
				<stop  offset="0.319" style="stop-color:#F3EC68;stop-opacity:0.681"/>
				<stop  offset="0.4303" style="stop-color:#F4EC4A;stop-opacity:0.5697"/>
				<stop  offset="0.5476" style="stop-color:#F5EB33;stop-opacity:0.4524"/>
				<stop  offset="0.6735" style="stop-color:#F6EB23;stop-opacity:0.3265"/>
				<stop  offset="0.8143" style="stop-color:#F6EB19;stop-opacity:0.1857"/>
				<stop  offset="1" style="stop-color:#F6EB16;stop-opacity:0"/>
			</radialGradient>
			<path class="st19" d="M61.53,59.51c-1.41,0-2.55-3.52-2.55-7.85c0-4.34,1.14-7.86,2.55-7.86c1.4,0,2.54,3.52,2.54,7.86
				C64.07,55.99,62.93,59.51,61.53,59.51z"/>
		</g>
		<g>
			
				<radialGradient id="SVGID_21_" cx="5200.9561" cy="46424.3711" r="40.2462" gradientTransform="matrix(-2.000000e-04 0.4405 -0.0288 0 1399.5913 -2239.3689)" gradientUnits="userSpaceOnUse">
				<stop  offset="0" style="stop-color:#EEEEEE"/>
				<stop  offset="0.0109" style="stop-color:#EEEEE8;stop-opacity:0.9891"/>
				<stop  offset="0.1089" style="stop-color:#F0EDB7;stop-opacity:0.8911"/>
				<stop  offset="0.2122" style="stop-color:#F2ED8C;stop-opacity:0.7878"/>
				<stop  offset="0.319" style="stop-color:#F3EC68;stop-opacity:0.681"/>
				<stop  offset="0.4303" style="stop-color:#F4EC4A;stop-opacity:0.5697"/>
				<stop  offset="0.5476" style="stop-color:#F5EB33;stop-opacity:0.4524"/>
				<stop  offset="0.6735" style="stop-color:#F6EB23;stop-opacity:0.3265"/>
				<stop  offset="0.8143" style="stop-color:#F6EB19;stop-opacity:0.1857"/>
				<stop  offset="1" style="stop-color:#F6EB16;stop-opacity:0"/>
			</radialGradient>
			<path class="st20" d="M61.52,69.39c-0.64,0-1.16-7.94-1.15-17.74c0-9.8,0.53-17.74,1.17-17.74c0.64,0,1.15,7.94,1.15,17.74
				C62.68,61.45,62.16,69.4,61.52,69.39z"/>
			
				<radialGradient id="SVGID_22_" cx="11329.5039" cy="17589.5352" r="40.2685" gradientTransform="matrix(0 0.195 -0.0745 0 1371.9467 -2157.6011)" gradientUnits="userSpaceOnUse">
				<stop  offset="0" style="stop-color:#EEEEEE"/>
				<stop  offset="0.0109" style="stop-color:#EEEEE8;stop-opacity:0.9891"/>
				<stop  offset="0.1089" style="stop-color:#F0EDB7;stop-opacity:0.8911"/>
				<stop  offset="0.2122" style="stop-color:#F2ED8C;stop-opacity:0.7878"/>
				<stop  offset="0.319" style="stop-color:#F3EC68;stop-opacity:0.681"/>
				<stop  offset="0.4303" style="stop-color:#F4EC4A;stop-opacity:0.5697"/>
				<stop  offset="0.5476" style="stop-color:#F5EB33;stop-opacity:0.4524"/>
				<stop  offset="0.6735" style="stop-color:#F6EB23;stop-opacity:0.3265"/>
				<stop  offset="0.8143" style="stop-color:#F6EB19;stop-opacity:0.1857"/>
				<stop  offset="1" style="stop-color:#F6EB16;stop-opacity:0"/>
			</radialGradient>
			<path class="st21" d="M61.53,59.51c-1.66,0-3-3.52-3-7.85c0-4.34,1.34-7.85,3-7.86c1.65,0,3,3.52,3,7.86
				C64.53,55.99,63.18,59.51,61.53,59.51z"/>
		</g>
		<g>
			
				<radialGradient id="SVGID_23_" cx="3408.4968" cy="-75064.5156" r="40.2802" gradientTransform="matrix(-0.4405 -3.000000e-04 0 -0.0288 1562.973 -2109.1836)" gradientUnits="userSpaceOnUse">
				<stop  offset="0" style="stop-color:#EEEEEE"/>
				<stop  offset="0.0109" style="stop-color:#EEEEE8;stop-opacity:0.9891"/>
				<stop  offset="0.1089" style="stop-color:#F0EDB7;stop-opacity:0.8911"/>
				<stop  offset="0.2122" style="stop-color:#F2ED8C;stop-opacity:0.7878"/>
				<stop  offset="0.319" style="stop-color:#F3EC68;stop-opacity:0.681"/>
				<stop  offset="0.4303" style="stop-color:#F4EC4A;stop-opacity:0.5697"/>
				<stop  offset="0.5476" style="stop-color:#F5EB33;stop-opacity:0.4524"/>
				<stop  offset="0.6735" style="stop-color:#F6EB23;stop-opacity:0.3265"/>
				<stop  offset="0.8143" style="stop-color:#F6EB19;stop-opacity:0.1857"/>
				<stop  offset="1" style="stop-color:#F6EB16;stop-opacity:0"/>
			</radialGradient>
			<path class="st22" d="M43.79,51.64c0-0.64,7.94-1.16,17.74-1.15c9.8,0.01,17.74,0.53,17.74,1.17c0,0.64-7.94,1.15-17.75,1.15
				C51.73,52.81,43.79,52.28,43.79,51.64z"/>
			
				<radialGradient id="SVGID_24_" cx="7280.8467" cy="-26574.041" r="40.2628" gradientTransform="matrix(-0.195 0 0 -0.0825 1481.2943 -2140.7058)" gradientUnits="userSpaceOnUse">
				<stop  offset="0" style="stop-color:#EEEEEE"/>
				<stop  offset="0.0109" style="stop-color:#EEEEE8;stop-opacity:0.9891"/>
				<stop  offset="0.1089" style="stop-color:#F0EDB7;stop-opacity:0.8911"/>
				<stop  offset="0.2122" style="stop-color:#F2ED8C;stop-opacity:0.7878"/>
				<stop  offset="0.319" style="stop-color:#F3EC68;stop-opacity:0.681"/>
				<stop  offset="0.4303" style="stop-color:#F4EC4A;stop-opacity:0.5697"/>
				<stop  offset="0.5476" style="stop-color:#F5EB33;stop-opacity:0.4524"/>
				<stop  offset="0.6735" style="stop-color:#F6EB23;stop-opacity:0.3265"/>
				<stop  offset="0.8143" style="stop-color:#F6EB19;stop-opacity:0.1857"/>
				<stop  offset="1" style="stop-color:#F6EB16;stop-opacity:0"/>
			</radialGradient>
			<path class="st23" d="M53.67,51.65c0-1.83,3.52-3.32,7.85-3.32c4.34,0,7.86,1.49,7.86,3.32c0,1.83-3.51,3.32-7.86,3.32
				C57.19,54.97,53.67,53.49,53.67,51.65z"/>
		</g>
	</g>
</g>
</svg>
