<svg xmlns="http://www.w3.org/2000/svg" viewBox="0 0 369.52 448.07"><defs><style>.cls-1{fill:none;stroke:#000;stroke-linecap:round;stroke-linejoin:round;stroke-width:2px;}</style></defs><g id="Layer_2" data-name="Layer 2"><g id="Layer_1-2" data-name="Layer 1"><path class="cls-1" d="M262.61,131.71S248.74,35.07,255.5,8c1-4,1-13,8-1s40,51.41,42,152.41"/><path class="cls-1" d="M295,144.51s13,15,16,28,4,23,8,34,13.87,29.43,10,42c-8,26-14,37-57,63"/><path class="cls-1" d="M304.4,289.16S302.5,309,314.5,330c8,14,9,19.84,9,19.84"/><path class="cls-1" d="M307.5,357s7-7.33,16-7.16,23,18.16,23,18.16"/><path class="cls-1" d="M336.5,403s6.56-27.5,12.11-40.61c3.33-7.84,7-13,9.67-13.28.5-.05-2.8,19.83-2.95,24.61,0,0,1.35-11.56,2.61-20.55.76-5.41,3.41-5.95,4.28-5.72,1.22.33,1.76,2.61,1.67,4.11-.53,8.39-1,14.63-1.67,21.44,0,0,1.72-21.75,2.56-22,1.5-.44,6.48,10.5,1.74,29.76-6.13,24.91-8.59,34.22-20,53.93-3.18,5.47-8.43,8.15-13.76-3.85"/><path class="cls-1" d="M334.6,434.48c-7.19.66-48.18,6.68-59.59,1.94"/><path class="cls-1" d="M274.3,135.07s-16.52-7.11-46.3-6-58.22,12.44-58.22,12.44"/><path class="cls-1" d="M177.33,148.4s-16.89-18-65.11-33.11-82-15-89.78-15.33c-3.55-.16-5.55,1.33-5.55,2.44s10.89,20,68.89,46,66.44,25.33,66.44,25.33"/><path class="cls-1" d="M181.56,310.18s-21.78-5.33-32.45-24.22-11.78-50-11.55-76.23,4.46-38.5,4.46-38.5"/><polyline class="cls-1" points="141.7 320.62 120 311.51 144.8 276.33"/><path class="cls-1" d="M137.53,211.51c-2.2-.22-19.09-11.33-68.64-24.22S1,178.18,1,178.18s28.56,77.33,40.56,88l67.55,1.55L93.78,322l34,13.11,4.34,11.29"/><path class="cls-1" d="M146.89,281.55c0,.89-1.33,28.85-6,41.52s-10.82,28.62-10.82,28.62"/><path class="cls-1" d="M147.11,358.62s-10.44-9.11-21.33-6.44-14.67,10.22-14.67,10.22"/><path class="cls-1" d="M129.11,416.4s3.56,19.78-1.55,23.33-23.34-18-28-40.66-10.91-36.65-7.86-44.45c2.82-7.18,4.08,9.48,6.67,14.3-3.31-11.87-5.85-21-2.59-22.44,2.45-1.12,2.29,9,8.22,22.07,0,0-6.8-18.05-5.63-20.82,1.63-3.85,18.15,21,20.37,32.15"/><path class="cls-1" d="M129.5,436.58s.43,6.56,30.06,4.49S192,439,192,439"/><path class="cls-1" d="M152.15,347.42s7.7,31.43,24,59l17.78,30.09s-3.05,3.45-3.93,6.58c-.39,1.39-1.11,2.66,0,2.83s7.61-2.72,8.06-3.44c0,0,.33,4.61,2.77,4.61,2.89,0,5.45-4.28,5.45-4.28s.5,3.61,3.72,3.61,6.39-3.89,6.39-3.89,1.11,4.56,5,4.56,7.67-6.17,7.67-6.17a12.16,12.16,0,0,0,6.5,2.45c3.38,0,.11-6.12-1.17-7.12s-2.54-42-4.61-53.53-8.59-43.26-8.59-43.26"/><path class="cls-1" d="M304.38,323.73s-.53,42.08-10,64S272,432.48,272,432.48s5,5.92,4.81,7.7-5.48,3.64-9.59-1.5c0,0,6,6.19,1.75,6.11s-8.16-4.28-8.16-4.28,6.39,8.87-3.06,4.67c-3.08-1.37-6.19-4.85-6.19-4.85s-.08,14.44-8.89-.08c0,0-1.77,5.48-5.63,1.22"/><line class="cls-1" x1="236" y1="351.01" x2="229.25" y2="379.81"/></g></g></svg>